<svg width="80" height="103" viewBox="0 0 80 103" fill="none" xmlns="http://www.w3.org/2000/svg">
<path fill-rule="evenodd" clip-rule="evenodd" d="M9.83337 0L9.83336 90H24.5519C27.1324 90 29.2244 92.2386 29.2244 95C29.2244 97.7614 27.1324 100 24.5519 100H9.83336C4.67222 100 0.488281 95.5229 0.488281 90V10C0.488281 4.47714 4.67223 0 9.83337 0ZM61.9322 32V39.5C61.9322 42.2614 64.0242 44.5 66.6047 44.5C69.1853 44.5 71.2773 42.2614 71.2773 39.5V27C71.2773 25.6838 70.7923 24.4207 69.9275 23.4847L49.602 1.48473C48.7242 0.534659 47.5277 0 46.2792 0H9.83337L9.83336 10L41.6066 10V27C41.6066 29.7614 43.6986 32 46.2792 32H61.9322ZM55.4148 22H50.9517V17.1693L55.4148 22Z" fill="#51F2B4"/>
<path fill-rule="evenodd" clip-rule="evenodd" d="M52.6792 58.75C54.6147 58.75 56.1836 60.4289 56.1836 62.5V69.3486H62.5837C64.5191 69.3486 66.0881 71.0275 66.0881 73.0986C66.0881 75.1697 64.5191 76.8486 62.5837 76.8486H56.1836V83.6972C56.1836 85.7683 54.6147 87.4472 52.6792 87.4472C50.7438 87.4472 49.1748 85.7683 49.1748 83.6972V76.8486H42.7748C40.8393 76.8486 39.2704 75.1697 39.2704 73.0986C39.2704 71.0275 40.8393 69.3486 42.7748 69.3486H49.1748V62.5C49.1748 60.4289 50.7438 58.75 52.6792 58.75Z" fill="#51F2B4"/>
<path fill-rule="evenodd" clip-rule="evenodd" d="M52.7039 54C42.8332 54 34.8315 62.5626 34.8315 73.125C34.8315 83.6875 42.8332 92.25 52.7039 92.25C62.5746 92.25 70.5764 83.6875 70.5764 73.125C70.5764 62.5626 62.5746 54 52.7039 54ZM25.4864 73.125C25.4864 57.0397 37.6721 44 52.7039 44C67.7358 44 79.9215 57.0397 79.9215 73.125C79.9215 89.2103 67.7358 102.25 52.7039 102.25C37.6721 102.25 25.4864 89.2103 25.4864 73.125Z" fill="#51F2B4"/>
</svg>
