<svg width="84" height="80" viewBox="0 0 84 80" fill="none" xmlns="http://www.w3.org/2000/svg">
<path fill-rule="evenodd" clip-rule="evenodd" d="M41.9997 0.332031C43.5431 0.332031 44.96 1.18515 45.6821 2.54917L83.1821 73.3825C83.8659 74.674 83.823 76.2293 83.0693 77.4812C82.3155 78.7331 80.961 79.4987 79.4997 79.4987H4.49968C3.03835 79.4987 1.68383 78.7331 0.930071 77.4812C0.176311 76.2293 0.133491 74.674 0.817226 73.3825L38.3172 2.54917C39.0394 1.18515 40.4563 0.332031 41.9997 0.332031ZM11.4201 71.1654H72.5792L41.9997 13.404L11.4201 71.1654Z" fill="#FFBB0C"/>
<path d="M46.1663 60.7487C46.1663 63.0731 44.3241 64.9154 41.9997 64.9154C39.6752 64.9154 37.833 63.0731 37.833 60.7487C37.833 58.4243 39.6752 56.582 41.9997 56.582C44.3241 56.582 46.1663 58.4243 46.1663 60.7487Z" fill="#FFBB0C"/>
<path d="M37.833 31.582C37.833 29.2576 39.6752 27.4154 41.9996 27.4154C44.324 27.4154 46.1663 29.2576 46.1663 31.582V46.1654C46.1663 48.4898 44.3228 50.332 41.9984 50.332C39.674 50.332 37.833 48.4898 37.833 46.1654V31.582Z" fill="#FFBB0C"/>
</svg>
