<svg width="60" height="59" viewBox="0 0 60 59" fill="none" xmlns="http://www.w3.org/2000/svg">
<path d="M51.2613 37.6797C51.2609 37.6799 51.2606 37.6802 49.6842 35.5965L51.2613 37.6797C51.2493 37.6886 51.2366 37.698 51.2246 37.7068L41.3031 44.9008C41.2906 44.9099 41.2779 44.9189 41.2652 44.9278L33.4632 50.3769C33.3836 50.4325 33.301 50.4836 33.2158 50.5301C29.9741 52.2963 27.9884 53.1523 24.4829 53.9642C21.2721 54.7373 18.9707 55.2878 15.4224 54.6478L13.4005 55.3807L15.0835 57.6192C15.7773 58.5421 16.9955 58.9037 18.083 58.5095L20.4947 57.6353C24.0429 58.2754 26.3444 57.7248 29.5552 56.9517C33.0606 56.1399 35.0464 55.2839 38.288 53.5176C38.3733 53.4712 38.4559 53.42 38.5354 53.3645L46.3375 47.9154C46.3502 47.9065 46.3628 47.8975 46.3754 47.8884L56.2968 40.6943L56.3335 40.6672L56.3392 40.6629L56.3475 40.6566C56.3536 40.652 56.3609 40.6464 56.3693 40.64C56.3861 40.627 56.4075 40.6104 56.4329 40.5904C56.4836 40.5505 56.551 40.4963 56.6307 40.4298C56.7883 40.2982 57.003 40.1107 57.2362 39.8824C57.6375 39.4894 58.3534 38.7294 58.7501 37.76C59.6797 35.4884 58.9061 33.1817 57.845 31.7542C57.7077 31.5694 57.564 31.3945 57.4144 31.2297C57.7097 30.8303 57.9702 30.3754 58.1644 29.8529C58.6062 28.664 58.5922 27.4326 58.3376 26.2019C58.3328 26.1789 58.3278 26.156 58.3224 26.1332C58.2017 25.6198 57.9726 25.1544 57.838 24.8948C57.6803 24.5908 57.5113 24.3077 57.401 24.1252C57.3567 24.0518 57.3088 23.9806 57.2574 23.9119C57.0172 23.5904 56.7508 23.29 56.4599 23.0169C56.7311 22.5178 56.9438 21.9474 57.0463 21.3049C57.2833 19.8197 56.8699 18.3404 55.9485 16.9741C55.9454 16.9696 55.9424 16.9651 55.9393 16.9606C54.8897 15.4249 53.028 14.3669 51.1166 14.3648C51.868 15.6239 52.1893 16.9682 51.9741 18.3173C51.8715 18.9599 51.6588 19.5302 51.3877 20.0294C51.6785 20.3025 51.945 20.6029 52.1852 20.9243C52.2365 20.993 52.2845 21.0642 52.3288 21.1376C52.4391 21.3202 52.608 21.6032 52.7657 21.9072C52.9004 22.1669 53.1295 22.6322 53.2502 23.1456C53.2555 23.1685 53.2606 23.1914 53.2653 23.2143C53.5199 24.445 53.534 25.6764 53.0921 26.8654C52.898 27.3879 52.6375 27.8427 52.3422 28.2421C52.4918 28.407 52.6355 28.5819 52.7728 28.7666C53.8338 30.1942 54.6075 32.5009 53.6778 34.7725C53.2811 35.7419 52.5653 36.5018 52.164 36.8948C51.9308 37.1232 51.716 37.3107 51.5584 37.4422C51.4787 37.5088 51.4114 37.5629 51.3607 37.6029C51.3353 37.6229 51.3139 37.6395 51.2971 37.6524C51.2887 37.6589 51.2814 37.6644 51.2753 37.6691L51.267 37.6753L51.2613 37.6797Z" fill="#008088"/>
<path fill-rule="evenodd" clip-rule="evenodd" d="M40.0636 12.2508C40.3221 12.3594 40.5199 12.524 40.5987 12.6067C40.9974 13.0251 41.0869 13.5401 40.8691 14.0635C40.8665 14.0698 40.8663 14.0703 40.8663 14.0703C40.8663 14.0703 40.8666 14.0697 40.8663 14.0703C40.8639 14.0749 40.8516 14.0972 40.8253 14.1331C40.7748 14.202 40.6509 14.3507 40.3955 14.5339L25.3696 25.3118L26.6425 27.0908L27.9177 28.8682L42.9402 18.0927L46.8181 15.3456C46.8402 15.3299 46.862 15.3138 46.8835 15.2974C46.9236 15.2667 47.0491 15.1992 47.3049 15.2585C47.5611 15.3178 47.8459 15.4908 48.0468 15.782C48.4565 16.3917 48.4236 16.6954 48.4106 16.7772C48.3924 16.891 48.3203 17.0728 48.0954 17.3116L45.7129 19.1013C44.9767 19.6202 37.4444 25.0393 32.9523 28.2711C31.1213 29.5884 29.7954 30.5423 29.6408 30.6529C28.6579 31.3554 28.4306 32.7217 29.1331 33.7045C29.8357 34.6874 31.2019 34.9147 32.1848 34.2121C32.3574 34.0887 33.7837 33.0626 35.7207 31.669C37.0655 30.7016 38.6564 29.557 40.2449 28.4144C42.1854 27.0187 44.1244 25.6244 45.6123 24.5556C46.3563 24.0211 46.987 23.5684 47.4484 23.2377L48.0049 22.8396L48.1662 22.7247C48.434 22.5845 48.6311 22.5859 48.7768 22.6213C48.9408 22.6613 49.204 22.788 49.491 23.1443C49.5758 23.2866 49.6589 23.4309 49.7291 23.5662C49.7715 23.6478 49.8005 23.7096 49.8182 23.7517C49.9375 24.3799 49.8693 24.6539 49.8258 24.7708C49.7811 24.8912 49.6744 25.0822 49.3136 25.3992L46.4855 27.2375C46.1444 27.4549 45.2128 28.1131 44.1368 28.8775C42.9049 29.7526 41.3249 30.882 39.7672 31.9979C38.2091 33.1142 36.6714 34.2183 35.5234 35.0433L33.6185 36.4129L34.894 38.19L36.172 39.9654L38.0764 38.5961C39.2235 37.7719 40.7593 36.6691 42.3152 35.5544C43.8715 34.4395 45.4458 33.3141 46.6704 32.4442C47.2832 32.0089 47.8052 31.6398 48.1925 31.3688C48.5229 31.1375 48.7012 31.0161 48.7636 30.9736C48.7833 30.9602 48.7914 30.9547 48.7892 30.956C48.9808 30.8422 49.1986 30.8008 49.3872 30.8327C49.5366 30.858 49.8205 30.9523 50.1554 31.4028C50.5745 31.9665 50.6263 32.5658 50.4964 32.8832C50.4969 32.882 50.4973 32.8814 50.4964 32.8832C50.491 32.8936 50.4582 32.9562 50.3725 33.0667C50.2787 33.1876 50.1584 33.3189 50.0262 33.4483C49.8964 33.5753 49.773 33.6832 49.683 33.7583C49.6388 33.7952 49.6045 33.8226 49.584 33.8388L49.5742 33.8464L39.2448 41.3334L31.2053 46.9461C28.1659 48.5969 26.5146 49.2893 23.4206 50.0048L23.4015 50.0092C19.913 50.8489 18.3434 51.1988 15.324 50.5423C14.9211 50.4547 14.5017 50.4827 14.114 50.6232L12.3923 51.2471L5.73311 42.3933L6.62309 41.4531C6.98067 41.0754 7.19196 40.5826 7.21904 40.0632C7.43567 35.9084 7.79671 33.5658 8.74818 29.2866C9.23336 27.8909 9.67489 27.0016 10.2285 26.2597C10.8001 25.4938 11.5795 24.7665 12.9012 23.8075C12.9669 23.7598 13.0299 23.7085 13.0899 23.6538C14.2278 22.6169 15.041 21.8532 15.7477 20.973C16.464 20.0807 17.021 19.1322 17.7534 17.7837C17.9071 17.5006 18.0302 17.1865 18.1184 16.9459C18.2138 16.686 18.3054 16.4081 18.3856 16.1602C18.3901 16.1462 18.3946 16.1324 18.399 16.1187C18.4294 16.1632 18.4604 16.2091 18.4917 16.256C18.6263 16.4573 18.7528 16.6549 18.8466 16.8039C18.8483 16.8066 18.85 16.8092 18.8516 16.8119C19.2779 18.2647 19.2635 19.0708 19.0912 19.708C18.8866 20.465 18.3813 21.2989 17.2242 22.7553C16.545 23.6102 16.6002 24.835 17.3535 25.6254C18.1068 26.4157 19.3276 26.5295 20.214 25.8921L37.8863 13.1839C37.9344 13.1487 37.987 13.1098 38.0435 13.0681C38.2662 12.9037 38.5488 12.6951 38.8543 12.4917C39.0424 12.3664 39.2052 12.2663 39.3317 12.198C39.3618 12.1817 39.3856 12.1695 39.4034 12.1608C39.6373 12.1237 39.8523 12.162 40.0636 12.2508ZM22.7295 14.7636L22.725 14.7562L22.7147 14.7393L22.678 14.6797C22.6468 14.6293 22.6026 14.5581 22.5486 14.4724C22.4414 14.3022 22.2924 14.0692 22.1289 13.8247C21.9688 13.5851 21.7789 13.3106 21.5922 13.0669C21.4995 12.9457 21.3907 12.8102 21.2742 12.6813C21.1832 12.5806 20.9845 12.3669 20.7132 12.1838C19.9414 11.6629 18.9277 11.2779 17.8558 11.319C16.6849 11.364 15.4373 11.9464 14.7664 13.2831C14.7496 13.3165 14.7336 13.3504 14.7186 13.3847C14.6168 13.6165 14.5237 13.8887 14.4533 14.101C14.4039 14.2497 14.3491 14.4208 14.2969 14.5836C14.2712 14.6638 14.2462 14.7419 14.2227 14.8145C14.1457 15.0526 14.0756 15.2632 14.0111 15.4391C13.9511 15.6025 13.9169 15.6775 13.9098 15.6932C13.9084 15.6962 13.9091 15.6944 13.9098 15.6932C13.194 17.0111 12.7909 17.6676 12.336 18.2341C11.8835 18.7979 11.3309 19.336 10.2313 20.3397C8.7827 21.3988 7.64387 22.4081 6.72227 23.6431C5.77632 24.9106 5.1474 26.2976 4.57054 27.981C4.54437 28.0574 4.52244 28.1352 4.50487 28.214C3.55381 32.4783 3.13629 35.0246 2.89528 39.0271L1.28558 40.7275C0.55202 41.5024 0.484562 42.6935 1.12594 43.5462L9.86829 55.1697C10.4461 55.938 11.4579 56.239 12.3617 55.9115L15.027 54.9457C18.6979 55.6353 21.0261 55.081 24.416 54.2651C28.0195 53.4311 30.0471 52.5588 33.4039 50.7306C33.4748 50.6919 33.5436 50.6494 33.6098 50.6031L41.7968 44.8874L52.1973 37.3485L50.8865 35.6034C52.1971 37.3482 52.197 37.3487 52.1973 37.3485L52.1997 37.3463L52.2027 37.3441L52.2101 37.3384L52.2304 37.3229L52.2916 37.2753C52.3409 37.2364 52.4073 37.1831 52.4862 37.1173C52.6425 36.9869 52.8556 36.8009 53.0866 36.5748C53.4939 36.1761 54.1744 35.4465 54.5452 34.5408C55.4248 32.3923 54.6984 30.1805 53.6662 28.7923C53.437 28.484 53.1906 28.2055 52.9295 27.9571C53.3309 27.492 53.6842 26.9475 53.9266 26.2954C54.3428 25.1761 54.3376 23.998 54.085 22.7772L54.0723 22.7196C53.9622 22.2517 53.7493 21.8149 53.6124 21.551C53.4561 21.2498 53.2872 20.9666 53.1729 20.7776C53.1359 20.7163 53.0958 20.6568 53.0529 20.5993C52.7318 20.1698 52.365 19.7824 51.9577 19.451C52.3189 18.894 52.6085 18.2332 52.7309 17.4669C52.9529 16.0756 52.5715 14.6659 51.6693 13.3287L51.6617 13.3174C50.2414 11.2403 47.3257 10.1287 44.9334 11.3715C44.6673 10.7296 44.2775 10.1253 43.7659 9.58855C42.9847 8.76869 40.9963 7.31232 38.3606 7.90848C37.9085 8.01074 37.5042 8.21247 37.2505 8.34969C36.9613 8.50606 36.6761 8.68593 36.4292 8.85032C36.0233 9.12066 35.6284 9.41255 35.4123 9.57236C35.3722 9.60199 35.3382 9.62707 35.3115 9.64664L23.5488 18.1052C23.474 17.1955 23.2635 16.2543 22.9492 15.2489C22.8961 15.0789 22.8222 14.9158 22.7295 14.7636ZM18.0292 15.6157C18.0186 15.604 18.0204 15.6071 18.0337 15.6207C18.0318 15.6185 18.0303 15.6169 18.0292 15.6157ZM34.894 38.19L36.172 39.9654C35.1914 40.6712 33.8243 40.4484 33.1186 39.4678C32.4128 38.4873 32.6379 37.1186 33.6185 36.4129L34.894 38.19ZM24.865 28.3658C25.5692 29.3475 26.936 29.5724 27.9177 28.8682L26.6425 27.0908L25.3696 25.3118C24.3879 26.016 24.1609 27.3841 24.865 28.3658Z" fill="#008088"/>
<path fill-rule="evenodd" clip-rule="evenodd" d="M18.3325 0.333984C19.9433 0.333984 21.2492 1.63982 21.2492 3.25065V5.58398C21.2492 7.19482 19.9433 8.50065 18.3325 8.50065C16.7217 8.50065 15.4158 7.19482 15.4158 5.58398V3.25065C15.4158 1.63982 16.7217 0.333984 18.3325 0.333984Z" fill="#008088"/>
<path fill-rule="evenodd" clip-rule="evenodd" d="M0.832489 17.5423C0.832489 15.9315 2.13833 14.6257 3.74916 14.6257H6.08249C7.69332 14.6257 8.99916 15.9315 8.99916 17.5423C8.99916 19.1531 7.69332 20.459 6.08249 20.459H3.74916C2.13833 20.459 0.832489 19.1531 0.832489 17.5423Z" fill="#008088"/>
<path fill-rule="evenodd" clip-rule="evenodd" d="M11.6449 11.1464C10.5059 12.2854 8.65912 12.2854 7.52009 11.1464L4.02009 7.64638C2.88107 6.50735 2.88107 4.66062 4.02009 3.52159C5.15912 2.38256 7.00585 2.38256 8.14488 3.52159L11.6449 7.02159C12.7839 8.16062 12.7839 10.0074 11.6449 11.1464Z" fill="#008088"/>
</svg>
