<svg width="21" height="20" viewBox="0 0 21 20" fill="none" xmlns="http://www.w3.org/2000/svg">
<path d="M18.2896 12.8042C18.2895 12.8043 18.2893 12.8044 17.7489 12.09L18.2896 12.8042C18.2855 12.8073 18.2811 12.8105 18.277 12.8135L14.8754 15.2801C14.8711 15.2832 14.8667 15.2863 14.8624 15.2893L12.1874 17.1576C12.1601 17.1766 12.1318 17.1942 12.1026 17.2101C10.9911 17.8157 10.3103 18.1092 9.10844 18.3875C8.00759 18.6526 7.21852 18.8413 6.00198 18.6219L5.30873 18.8732L5.88576 19.6406C6.12366 19.9571 6.54132 20.081 6.91417 19.9459L7.74104 19.6462C8.95757 19.8656 9.74665 19.6769 10.8475 19.4118C12.0494 19.1335 12.7302 18.84 13.8416 18.2344C13.8708 18.2185 13.8992 18.2009 13.9264 18.1819L16.6014 16.3136C16.6058 16.3106 16.6101 16.3075 16.6144 16.3044L20.0161 13.8378L20.0286 13.8285L20.0306 13.8271L20.0334 13.8249C20.0355 13.8233 20.038 13.8214 20.0409 13.8192C20.0467 13.8148 20.054 13.8091 20.0627 13.8022C20.0801 13.7885 20.1032 13.7699 20.1305 13.7471C20.1846 13.702 20.2582 13.6377 20.3381 13.5594C20.4757 13.4247 20.7212 13.1642 20.8572 12.8318C21.1759 12.0529 20.9107 11.2621 20.5469 10.7726C20.4998 10.7093 20.4505 10.6493 20.3992 10.5928C20.5005 10.4559 20.5898 10.2999 20.6564 10.1208C20.8079 9.71314 20.803 9.29095 20.7157 8.86899C20.7141 8.86112 20.7124 8.85327 20.7105 8.84544C20.6692 8.66942 20.5906 8.50986 20.5444 8.42085C20.4904 8.31661 20.4325 8.21957 20.3946 8.15698C20.3794 8.13182 20.363 8.10741 20.3454 8.08385C20.2631 7.97363 20.1717 7.87064 20.072 7.77701C20.1649 7.60587 20.2379 7.41032 20.273 7.19002C20.3543 6.68083 20.2126 6.17363 19.8966 5.70517C19.8956 5.70363 19.8945 5.70209 19.8935 5.70055C19.5336 5.17404 18.8953 4.81127 18.24 4.81055C18.4976 5.24227 18.6078 5.70317 18.534 6.16572C18.4988 6.38602 18.4259 6.58157 18.3329 6.75271C18.4326 6.84634 18.524 6.94933 18.6064 7.05955C18.624 7.08311 18.6404 7.10751 18.6556 7.13268C18.6934 7.19527 18.7513 7.29231 18.8054 7.39655C18.8516 7.48556 18.9301 7.64512 18.9715 7.82114C18.9733 7.82897 18.9751 7.83682 18.9767 7.84469C19.064 8.26665 19.0688 8.68884 18.9173 9.09647C18.8507 9.27562 18.7614 9.43157 18.6602 9.56851C18.7115 9.62503 18.7607 9.68499 18.8078 9.74833C19.1716 10.2378 19.4368 11.0286 19.1181 11.8075C18.9821 12.1399 18.7367 12.4004 18.5991 12.5351C18.5191 12.6134 18.4455 12.6777 18.3915 12.7228C18.3641 12.7456 18.341 12.7642 18.3237 12.7779C18.315 12.7848 18.3076 12.7905 18.3019 12.7949C18.299 12.7971 18.2965 12.799 18.2944 12.8006L18.2915 12.8028L18.2896 12.8042Z" fill="#212529"/>
<path fill-rule="evenodd" clip-rule="evenodd" d="M14.4504 4.08576C14.539 4.12302 14.6068 4.17942 14.6339 4.2078C14.7705 4.35123 14.8012 4.52782 14.7266 4.70725C14.7257 4.70941 14.7256 4.7096 14.7256 4.7096C14.7256 4.7096 14.7257 4.7094 14.7256 4.7096C14.7248 4.71116 14.7206 4.71882 14.7115 4.73114C14.6942 4.75476 14.6517 4.80572 14.5642 4.86854L9.41244 8.56382L9.84887 9.17376L10.2861 9.78316L15.4366 6.0887L16.7662 5.14683C16.7738 5.14146 16.7813 5.13595 16.7886 5.1303C16.8024 5.11978 16.8454 5.09666 16.9331 5.11697C17.0209 5.1373 17.1186 5.19662 17.1875 5.29645C17.328 5.50549 17.3167 5.60964 17.3122 5.63768C17.306 5.67668 17.2813 5.73901 17.2042 5.8209L16.3873 6.4345C16.1349 6.61242 13.5524 8.47039 12.0122 9.57845C11.3845 10.0301 10.9299 10.3571 10.8768 10.395C10.5398 10.6359 10.4619 11.1044 10.7028 11.4413C10.9437 11.7783 11.4121 11.8562 11.7491 11.6154C11.8083 11.5731 12.2973 11.2213 12.9614 10.7434C13.4224 10.4117 13.9679 10.0193 14.5126 9.62757C15.1778 9.14904 15.8426 8.671 16.3528 8.30454C16.6079 8.12129 16.8241 7.96608 16.9823 7.85271L17.1731 7.71619L17.2284 7.6768C17.3202 7.62875 17.3878 7.62922 17.4378 7.64138C17.494 7.65507 17.5842 7.6985 17.6826 7.82068C17.7117 7.86946 17.7402 7.91893 17.7643 7.96533C17.7788 7.99332 17.7887 8.01451 17.7948 8.02894C17.8357 8.2443 17.8123 8.33824 17.7974 8.37834C17.7821 8.41963 17.7455 8.4851 17.6218 8.59379L16.6522 9.22407C16.5352 9.29862 16.2158 9.52426 15.8469 9.78634C15.4245 10.0864 14.8828 10.4736 14.3488 10.8562C13.8146 11.2389 13.2874 11.6175 12.8937 11.9003L12.2406 12.3699L12.678 12.9792L13.1161 13.5879L13.7691 13.1185C14.1623 12.8358 14.6889 12.4577 15.2223 12.0756C15.7559 11.6933 16.2957 11.3075 16.7156 11.0092C16.9257 10.86 17.1046 10.7334 17.2374 10.6405C17.3507 10.5612 17.4118 10.5196 17.4332 10.505C17.44 10.5004 17.4428 10.4985 17.442 10.499C17.5077 10.46 17.5824 10.4458 17.6471 10.4567C17.6983 10.4654 17.7956 10.4977 17.9104 10.6522C18.0541 10.8454 18.0719 11.0509 18.0273 11.1597C18.0275 11.1593 18.0277 11.1591 18.0273 11.1597C18.0255 11.1633 18.0142 11.1847 17.9849 11.2226C17.9527 11.2641 17.9115 11.3091 17.8661 11.3535C17.8216 11.397 17.7793 11.434 17.7485 11.4598C17.7333 11.4724 17.7215 11.4818 17.7145 11.4874L17.7112 11.49L14.1696 14.0569L11.4133 15.9813C10.3712 16.5473 9.80501 16.7847 8.74421 17.03L8.73767 17.0315C7.54161 17.3194 7.00347 17.4394 5.96823 17.2143C5.8301 17.1842 5.68629 17.1939 5.55339 17.242L4.96307 17.4559L2.67992 14.4203L2.98506 14.098C3.10766 13.9685 3.1801 13.7995 3.18939 13.6214C3.26366 12.1969 3.38745 11.3938 3.71366 9.9266C3.88001 9.44807 4.03139 9.14317 4.22121 8.88881C4.41718 8.62621 4.68441 8.37688 5.13757 8.04805C5.16009 8.0317 5.18169 8.01412 5.20225 7.99538C5.59237 7.63987 5.87121 7.37803 6.11349 7.07623C6.35908 6.77031 6.55005 6.44512 6.80115 5.98275C6.85385 5.88571 6.89605 5.77802 6.92632 5.69552C6.95901 5.6064 6.99044 5.51114 7.01792 5.42614C7.01947 5.42134 7.021 5.4166 7.02252 5.4119C7.03293 5.42716 7.04355 5.44289 7.0543 5.45897C7.10044 5.528 7.14381 5.59576 7.17598 5.64683C7.17656 5.64775 7.17713 5.64866 7.17769 5.64956C7.32384 6.14767 7.3189 6.42405 7.25985 6.6425C7.18968 6.90206 7.01644 7.18797 6.61971 7.68732C6.38684 7.98043 6.40577 8.40036 6.66405 8.67133C6.92234 8.9423 7.34088 8.98133 7.64481 8.76277L13.7039 4.40568C13.7204 4.39361 13.7384 4.38027 13.7578 4.36598C13.8341 4.30962 13.931 4.23811 14.0358 4.16837C14.1003 4.1254 14.1561 4.0911 14.1994 4.06765C14.2098 4.06206 14.2179 4.0579 14.224 4.05489C14.3042 4.04218 14.3779 4.05531 14.4504 4.08576ZM8.50727 4.94729L8.50573 4.94476L8.50218 4.93897L8.48959 4.91853C8.4789 4.90124 8.46374 4.87685 8.44524 4.84747C8.40848 4.7891 8.35739 4.70921 8.30135 4.62538C8.24644 4.54324 8.18135 4.44913 8.11734 4.36556C8.08553 4.32403 8.04825 4.27755 8.0083 4.23337C7.97709 4.19885 7.90898 4.12556 7.81595 4.06278C7.55135 3.8842 7.20378 3.7522 6.83629 3.7663C6.43484 3.78171 6.00706 3.98139 5.77705 4.43969C5.77129 4.45116 5.76582 4.46279 5.76066 4.47454C5.72576 4.55402 5.69383 4.64733 5.6697 4.72012C5.65278 4.77112 5.63398 4.82976 5.61608 4.88559C5.60728 4.91307 5.59868 4.93987 5.59065 4.96474C5.56425 5.04637 5.54022 5.11858 5.51809 5.17889C5.49754 5.23493 5.4858 5.26064 5.48336 5.266C5.48288 5.26704 5.48313 5.26642 5.48336 5.266C5.23796 5.71788 5.09973 5.94294 4.94378 6.1372C4.78862 6.33048 4.59915 6.51498 4.22217 6.85909C3.7255 7.22222 3.33504 7.56827 3.01906 7.99168C2.69474 8.42628 2.47911 8.90182 2.28133 9.47898C2.27235 9.50517 2.26484 9.53183 2.25881 9.55885C1.93274 11.0209 1.78959 11.8939 1.70695 13.2662L1.15506 13.8492C0.90355 14.1149 0.880421 14.5233 1.10032 14.8156L4.0977 18.8008C4.29582 19.0642 4.6427 19.1674 4.95259 19.0551L5.86641 18.724C7.12499 18.9605 7.92322 18.7704 9.08548 18.4907C10.321 18.2047 11.0161 17.9057 12.167 17.2788C12.1914 17.2656 12.2149 17.251 12.2377 17.2351L15.0446 15.2755L18.6105 12.6907L18.1611 12.0924C18.6104 12.6906 18.6104 12.6908 18.6105 12.6907L18.6113 12.69L18.6124 12.6892L18.6149 12.6872L18.6219 12.6819L18.6428 12.6656C18.6597 12.6523 18.6825 12.634 18.7095 12.6114C18.7631 12.5667 18.8362 12.5029 18.9154 12.4254C19.055 12.2887 19.2884 12.0386 19.4155 11.728C19.7171 10.9914 19.468 10.2331 19.1141 9.75713C19.0356 9.65145 18.9511 9.55595 18.8615 9.47077C18.9992 9.31133 19.1203 9.12465 19.2034 8.90106C19.3461 8.51728 19.3443 8.11338 19.2577 7.69481L19.2534 7.67506C19.2156 7.51463 19.1426 7.36487 19.0957 7.27439C19.0421 7.17114 18.9842 7.07405 18.945 7.00925C18.9323 6.98821 18.9186 6.96781 18.9038 6.94812C18.7937 6.80084 18.668 6.66802 18.5283 6.55442C18.6522 6.36344 18.7515 6.13687 18.7934 5.87413C18.8696 5.39712 18.7388 4.91381 18.4295 4.45534L18.4269 4.45147C17.9399 3.73931 16.9402 3.3582 16.12 3.78429C16.0288 3.56421 15.8951 3.35703 15.7198 3.17299C15.4519 2.8919 14.7702 2.39257 13.8665 2.59697C13.7115 2.63203 13.5729 2.70119 13.4859 2.74824C13.3867 2.80185 13.2889 2.86352 13.2043 2.91989C13.0651 3.01258 12.9298 3.11265 12.8556 3.16744C12.8419 3.1776 12.8303 3.1862 12.8211 3.19291L8.78818 6.09301C8.76251 5.78109 8.69036 5.4584 8.5826 5.1137C8.56437 5.05539 8.53904 4.99947 8.50727 4.94729ZM6.89573 5.23944C6.8921 5.23543 6.89271 5.23649 6.89726 5.24117C6.8966 5.24042 6.89609 5.23985 6.89573 5.23944ZM12.678 12.9792L13.1161 13.5879C12.7799 13.8299 12.3112 13.7535 12.0692 13.4173C11.8273 13.0811 11.9044 12.6119 12.2406 12.3699L12.678 12.9792ZM9.23944 9.6109C9.48087 9.94748 9.94948 10.0246 10.2861 9.78316L9.84887 9.17376L9.41244 8.56382C9.07586 8.80525 8.99801 9.27432 9.23944 9.6109Z" fill="#212529"/>
<path fill-rule="evenodd" clip-rule="evenodd" d="M6.99971 0C7.552 -2.41411e-08 7.99971 0.447715 7.99971 1V1.8C7.99971 2.35228 7.552 2.8 6.99971 2.8C6.44743 2.8 5.99971 2.35228 5.99971 1.8V1C5.99971 0.447715 6.44743 2.41411e-08 6.99971 0Z" fill="#212529"/>
<path fill-rule="evenodd" clip-rule="evenodd" d="M0.99971 5.9C0.99971 5.34772 1.44743 4.9 1.99971 4.9H2.79971C3.352 4.9 3.79971 5.34772 3.79971 5.9C3.79971 6.45228 3.352 6.9 2.79971 6.9H1.99971C1.44743 6.9 0.99971 6.45228 0.99971 5.9Z" fill="#212529"/>
<path fill-rule="evenodd" clip-rule="evenodd" d="M4.70682 3.70711C4.31629 4.09763 3.68313 4.09763 3.2926 3.70711L2.0926 2.50711C1.70208 2.11658 1.70208 1.48342 2.0926 1.09289C2.48313 0.702369 3.11629 0.702369 3.50682 1.09289L4.70682 2.29289C5.09734 2.68342 5.09734 3.31658 4.70682 3.70711Z" fill="#212529"/>
</svg>
