<svg width="26" height="28" viewBox="0 0 26 28" fill="none" xmlns="http://www.w3.org/2000/svg">
<path fill-rule="evenodd" clip-rule="evenodd" d="M7.25 0.6875C7.94036 0.6875 8.5 1.24714 8.5 1.9375V2.09559H17.4375V1.9375C17.4375 1.24714 17.9971 0.6875 18.6875 0.6875C19.3779 0.6875 19.9375 1.24714 19.9375 1.9375V2.09559H21.4375C23.6827 2.09559 25.5 3.91762 25.5 6.16177V23.0588C25.5 25.303 23.6827 27.125 21.4375 27.125H4.5625C2.3173 27.125 0.5 25.303 0.5 23.0588V6.16177C0.5 3.91762 2.3173 2.09559 4.5625 2.09559H6V1.9375C6 1.24714 6.55964 0.6875 7.25 0.6875ZM6 4.59559H4.5625C3.70109 4.59559 3 5.29525 3 6.16177V9.13603H23V6.16177C23 5.29525 22.2989 4.59559 21.4375 4.59559H19.9375V6.34927C19.9375 7.03962 19.3779 7.59927 18.6875 7.59927C17.9971 7.59927 17.4375 7.03962 17.4375 6.34927V4.59559H8.5V6.34926C8.5 7.03962 7.94036 7.59927 7.25 7.59927C6.55965 7.59927 6 7.03962 6 6.34927V4.59559ZM23 11.636H3V23.0588C3 23.9253 3.7011 24.625 4.5625 24.625H21.4375C22.2989 24.625 23 23.9253 23 23.0588V11.636Z" fill="#008088"/>
<path d="M5.99609 15.3614C5.99609 14.9763 6.30827 14.6641 6.69336 14.6641H8.08789C8.47298 14.6641 8.78516 14.9763 8.78516 15.3614V16.7559C8.78516 17.141 8.47298 17.4532 8.08789 17.4532H6.69336C6.30827 17.4532 5.99609 17.141 5.99609 16.7559V15.3614Z" fill="#008088"/>
<path d="M5.99609 19.545C5.99609 19.1599 6.30827 18.8477 6.69336 18.8477H8.08789C8.47298 18.8477 8.78516 19.1599 8.78516 19.545V20.9395C8.78516 21.3246 8.47298 21.6367 8.08789 21.6367H6.69336C6.30827 21.6367 5.99609 21.3246 5.99609 20.9395V19.545Z" fill="#008088"/>
<path d="M10.1797 19.545C10.1797 19.1599 10.4919 18.8477 10.877 18.8477H12.2715C12.6566 18.8477 12.9687 19.1599 12.9687 19.545V20.9395C12.9687 21.3246 12.6566 21.6367 12.2715 21.6367H10.877C10.4919 21.6367 10.1797 21.3246 10.1797 20.9395V19.545Z" fill="#008088"/>
<path d="M10.1797 15.3614C10.1797 14.9763 10.4919 14.6641 10.877 14.6641H12.2715C12.6566 14.6641 12.9687 14.9763 12.9687 15.3614V16.7559C12.9687 17.141 12.6566 17.4532 12.2715 17.4532H10.877C10.4919 17.4532 10.1797 17.141 10.1797 16.7559V15.3614Z" fill="#008088"/>
<path d="M14.3633 15.3614C14.3633 14.9763 14.6755 14.6641 15.0605 14.6641H16.4551C16.8402 14.6641 17.1523 14.9763 17.1523 15.3614V16.7559C17.1523 17.141 16.8402 17.4532 16.4551 17.4532H15.0605C14.6755 17.4532 14.3633 17.141 14.3633 16.7559V15.3614Z" fill="#008088"/>
</svg>
