<svg width="26" height="20" viewBox="0 0 26 20" fill="none" xmlns="http://www.w3.org/2000/svg">
<path fill-rule="evenodd" clip-rule="evenodd" d="M9.49987 3.75C9.49987 1.67893 11.1788 0 13.2499 0H18.2499C20.3209 0 21.9999 1.67893 21.9999 3.75H20.7499V5H10.7499V3.75H9.49987ZM13.2491 2.5H18.2506C18.2504 2.5 18.2509 2.5 18.2506 2.5H13.2491C13.2489 2.5 13.2494 2.5 13.2491 2.5Z" fill="white"/>
<path fill-rule="evenodd" clip-rule="evenodd" d="M3.9997 3.25007C3.9997 2.00743 5.00706 1.00007 6.2497 1.00007C7.49234 1.00007 8.4997 2.00743 8.4997 3.25007V5.00007H3.9997V3.25007Z" fill="white"/>
<path fill-rule="evenodd" clip-rule="evenodd" d="M15.781 8.50013C14.2358 8.50013 12.9998 9.7405 12.9998 11.2501C12.9998 12.7598 14.2358 14.0001 15.781 14.0001C17.3263 14.0001 18.5623 12.7598 18.5623 11.2501C18.5623 9.7405 17.3263 8.50013 15.781 8.50013ZM10.4998 11.2501C10.4998 8.34148 12.8735 6.00013 15.781 6.00013C18.6886 6.00013 21.0623 8.34148 21.0623 11.2501C21.0623 14.1588 18.6886 16.5001 15.781 16.5001C12.8735 16.5001 10.4998 14.1588 10.4998 11.2501Z" fill="white"/>
<path d="M22.5 6.75012C22.5 7.44047 21.9404 8.00012 21.25 8.00012C20.5597 8.00012 20 7.44047 20 6.75012C20 6.05976 20.5597 5.50012 21.25 5.50012C21.9404 5.50012 22.5 6.05976 22.5 6.75012Z" fill="white"/>
<path fill-rule="evenodd" clip-rule="evenodd" d="M6.00017 2.50011H21.7502C23.8212 2.50011 25.5002 4.17904 25.5002 6.25011V16.2501C25.5002 18.3212 23.8212 20.0001 21.7502 20.0001H6.00017V2.50011ZM8.4997 5.00007L8.50017 17.5001H21.7502C22.4405 17.5001 23.0002 16.9405 23.0002 16.2501V6.25011C23.0002 5.55975 22.4405 5.00011 21.7502 5.00011L8.4997 5.00007Z" fill="white"/>
<path fill-rule="evenodd" clip-rule="evenodd" d="M0.5 6.25011C0.5 4.17904 2.17893 2.50011 4.25 2.50011H8.5V20.0001H4.25C2.17893 20.0001 0.5 18.3212 0.5 16.2501V6.25011ZM4.25 5.00011C3.55964 5.00011 3 5.55975 3 6.25011V16.2501C3 16.9405 3.55964 17.5001 4.25 17.5001H6V5.00011H4.25Z" fill="white"/>
</svg>
