<svg width="26" height="17" viewBox="0 0 26 17" fill="none" xmlns="http://www.w3.org/2000/svg">
<path fill-rule="evenodd" clip-rule="evenodd" d="M20.1386 0.745902C20.6242 1.23669 20.6199 2.02813 20.1291 2.51364L8.49231 14.0254C8.0034 14.5091 7.21562 14.507 6.72933 14.0207L0.866116 8.15747C0.377961 7.66931 0.377961 6.87786 0.866116 6.3897C1.35427 5.90155 2.14573 5.90155 2.63388 6.3897L7.61797 11.3738L18.3709 0.736357C18.8617 0.250844 19.6531 0.255118 20.1386 0.745902Z" fill="#008088"/>
<path fill-rule="evenodd" clip-rule="evenodd" d="M25.1689 3.80777C25.6549 4.29808 25.6514 5.08953 25.1611 5.57552L14.5048 16.138C14.0233 16.6154 13.2489 16.6217 12.7596 16.1523L11.2283 14.6836C10.7301 14.2057 10.7136 13.4144 11.1915 12.9162C11.6694 12.418 12.4607 12.4015 12.9589 12.8794L13.6106 13.5044L23.4012 3.79996C23.8915 3.31397 24.6829 3.31747 25.1689 3.80777Z" fill="#008088"/>
</svg>
