<svg width="53" height="59" viewBox="0 0 53 59" fill="none" xmlns="http://www.w3.org/2000/svg">
<path fill-rule="evenodd" clip-rule="evenodd" d="M11.666 43.1642C11.666 41.9561 12.6453 40.9768 13.8534 40.9768H17.6448C18.8529 40.9768 19.8322 41.9561 19.8322 43.1642C19.8322 44.3722 18.8529 45.3515 17.6448 45.3515H13.8534C12.6453 45.3515 11.666 44.3722 11.666 43.1642Z" fill="#20BFC8"/>
<path fill-rule="evenodd" clip-rule="evenodd" d="M11.666 17.1216C11.666 15.9135 12.6453 14.9342 13.8534 14.9342L21.1446 14.9342C22.3527 14.9342 23.332 15.9135 23.332 17.1216C23.332 18.3296 22.3527 19.3089 21.1446 19.3089L13.8534 19.3089C12.6453 19.3089 11.666 18.3296 11.666 17.1216Z" fill="#20BFC8"/>
<path fill-rule="evenodd" clip-rule="evenodd" d="M11.666 34.998C11.666 33.7899 12.6453 32.8106 13.8534 32.8106H25.811C27.0191 32.8106 27.9984 33.7899 27.9984 34.998C27.9984 36.206 27.0191 37.1853 25.811 37.1853H13.8534C12.6453 37.1853 11.666 36.206 11.666 34.998Z" fill="#20BFC8"/>
<path fill-rule="evenodd" clip-rule="evenodd" d="M11.666 26.8918C11.666 25.6837 12.6453 24.7044 13.8534 24.7044H32.8106C34.0187 24.7044 34.998 25.6837 34.998 26.8918C34.998 28.0998 34.0187 29.0792 32.8106 29.0792H13.8534C12.6453 29.0792 11.666 28.0998 11.666 26.8918Z" fill="#20BFC8"/>
<path fill-rule="evenodd" clip-rule="evenodd" d="M0 8.7495C0 3.91728 3.91729 0 8.7495 0H37.9145C42.7467 0 46.664 3.91729 46.664 8.7495V22.7487C46.664 24.3594 45.3582 25.6652 43.7475 25.6652C42.1368 25.6652 40.831 24.3594 40.831 22.7487V8.7495C40.831 7.13876 39.5252 5.833 37.9145 5.833H8.7495C7.13876 5.833 5.833 7.13876 5.833 8.7495V49.5805C5.833 51.1912 7.13876 52.497 8.7495 52.497H16.1866C17.7973 52.497 19.1031 53.8028 19.1031 55.4135C19.1031 57.0242 17.7973 58.33 16.1866 58.33H8.7495C3.91728 58.33 0 54.4127 0 49.5805V8.7495Z" fill="#20BFC8"/>
<path fill-rule="evenodd" clip-rule="evenodd" d="M48.2523 29.7856C47.2515 28.7848 45.3943 29.0194 44.1042 30.3095L41.5816 32.8321L48.8299 40.0804L51.3525 37.5578C52.6426 36.2676 52.8772 34.4105 51.8764 33.4097L48.2523 29.7856ZM46.0957 42.8146L38.8474 35.5663L25.6414 48.7723C25.0623 49.3514 24.6707 50.0767 24.5426 50.8075L23.3435 57.6465C23.2671 58.0827 23.5793 58.3949 24.0155 58.3185L30.8545 57.1194C31.5853 56.9913 32.3106 56.5997 32.8897 56.0206L46.0957 42.8146Z" fill="#20BFC8"/>
</svg>
