<svg width="20" height="12" viewBox="0 0 20 12" fill="none" xmlns="http://www.w3.org/2000/svg">
<path fill-rule="evenodd" clip-rule="evenodd" d="M9.98745 0.000184082C13.0641 -0.0208761 15.9812 1.76593 19.3912 4.95258C19.7772 5.31336 20 5.82286 20 6.3537C20 6.93082 19.7378 7.48114 19.288 7.84435C15.972 10.5223 13.1367 12.0087 10.133 11.9999C7.1417 11.9912 4.22536 10.4984 0.747582 7.85535C0.278054 7.49852 6.09184e-05 6.93913 3.05201e-05 6.34868C3.16154e-06 5.81782 0.225435 5.30942 0.614623 4.95265C4.0102 1.83995 6.91925 0.0211862 9.98745 0.000184082ZM2.06034 6.34078C5.40577 8.86862 7.85144 9.99323 10.1389 9.99993C12.4193 10.0066 14.7802 8.90141 17.9561 6.34906C14.6446 3.26763 12.2425 1.98479 10.0011 2.00014C7.75695 2.0155 5.3599 3.33248 2.06034 6.34078Z" fill="#212529"/>
<path d="M13 6C13 7.65685 11.6569 9 10 9C8.34316 9 7.00001 7.65685 7.00001 6C7.00001 4.34315 8.34316 3 10 3C11.6569 3 13 4.34315 13 6Z" fill="#212529"/>
</svg>
