<svg width="20" height="21" viewBox="0 0 20 21" fill="none" xmlns="http://www.w3.org/2000/svg">
<path d="M14 5.75C14 7.95914 12.2091 9.75 10 9.75C7.79086 9.75 6 7.95914 6 5.75C6 3.54086 7.79086 1.75 10 1.75C12.2091 1.75 14 3.54086 14 5.75Z" fill="#008088"/>
<path fill-rule="evenodd" clip-rule="evenodd" d="M10 3C8.48122 3 7.25 4.23122 7.25 5.75C7.25 7.26878 8.48122 8.5 10 8.5C11.5188 8.5 12.75 7.26878 12.75 5.75C12.75 4.23122 11.5188 3 10 3ZM4.75 5.75C4.75 2.85051 7.10051 0.5 10 0.5C12.8995 0.5 15.25 2.85051 15.25 5.75C15.25 8.6495 12.8995 11 10 11C7.10051 11 4.75 8.6495 4.75 5.75Z" fill="#008088"/>
<path d="M10 11.25C5.16751 11.25 1.25 14.8317 1.25 19.25H18.75C18.75 14.8317 14.8325 11.25 10 11.25Z" fill="#008088"/>
<path fill-rule="evenodd" clip-rule="evenodd" d="M2.63037 18H17.3696C16.7242 14.9354 13.7517 12.5 10 12.5C6.2483 12.5 3.27576 14.9354 2.63037 18ZM0 19.25C0 14.0383 4.58495 10 10 10C15.4151 10 20 14.0383 20 19.25C20 19.9404 19.4404 20.5 18.75 20.5H1.25C0.559644 20.5 0 19.9404 0 19.25Z" fill="#008088"/>
</svg>
