<svg width="21" height="20" viewBox="0 0 21 20" fill="none" xmlns="http://www.w3.org/2000/svg">
<path fill-rule="evenodd" clip-rule="evenodd" d="M3.5 2C2.94772 2 2.5 2.44772 2.5 3V17C2.5 17.5523 2.94772 18 3.5 18H17.5C18.0523 18 18.5 17.5523 18.5 17V6.23175C18.5 5.96555 18.3939 5.71034 18.2051 5.52264L14.955 2.29089C14.7676 2.10458 14.5141 2 14.2499 2H3.5ZM0.5 3C0.5 1.34315 1.84315 0 3.5 0H14.2499C15.0426 0 15.8031 0.313742 16.3652 0.872679L19.6153 4.10443C20.1816 4.66752 20.5 5.43315 20.5 6.23175V17C20.5 18.6569 19.1569 20 17.5 20H3.5C1.84315 20 0.5 18.6569 0.5 17V3Z" fill="#212529"/>
<path fill-rule="evenodd" clip-rule="evenodd" d="M5.75 5.25V1H4.25V6C4.25 6.41421 4.58579 6.75 5 6.75H15C15.4142 6.75 15.75 6.41421 15.75 6V1H14.25V5.25H5.75Z" fill="#212529"/>
<path fill-rule="evenodd" clip-rule="evenodd" d="M4.25 10.3C4.25 9.88579 4.58579 9.55 5 9.55H15C15.4142 9.55 15.75 9.88579 15.75 10.3C15.75 10.7142 15.4142 11.05 15 11.05H5C4.58579 11.05 4.25 10.7142 4.25 10.3Z" fill="#212529"/>
<path fill-rule="evenodd" clip-rule="evenodd" d="M12.75 1.35V5.7C12.75 6.11421 12.4142 6.45 12 6.45C11.5858 6.45 11.25 6.11421 11.25 5.7V1.35C11.25 0.935787 11.5858 0.6 12 0.6C12.4142 0.6 12.75 0.935787 12.75 1.35Z" fill="#212529"/>
<path fill-rule="evenodd" clip-rule="evenodd" d="M4.25 12.9C4.25 12.4858 4.58579 12.15 5 12.15H15C15.4142 12.15 15.75 12.4858 15.75 12.9C15.75 13.3142 15.4142 13.65 15 13.65H5C4.58579 13.65 4.25 13.3142 4.25 12.9Z" fill="#212529"/>
<path fill-rule="evenodd" clip-rule="evenodd" d="M4.25 15.5C4.25 15.0858 4.58579 14.75 5 14.75H15C15.4142 14.75 15.75 15.0858 15.75 15.5C15.75 15.9142 15.4142 16.25 15 16.25H5C4.58579 16.25 4.25 15.9142 4.25 15.5Z" fill="#212529"/>
</svg>
