<svg width="30" height="30" viewBox="0 0 30 30" fill="none" xmlns="http://www.w3.org/2000/svg">
<path fill-rule="evenodd" clip-rule="evenodd" d="M2.25 8.25C2.25 6.31701 3.817 4.75 5.75 4.75H15.25C17.183 4.75 18.75 6.317 18.75 8.25V16H16.75V8.25C16.75 7.42157 16.0784 6.75 15.25 6.75H5.75C4.92157 6.75 4.25 7.42157 4.25 8.25V22.75C4.25 23.0261 4.47386 23.25 4.75 23.25H16.25C16.5261 23.25 16.75 23.0261 16.75 22.75V22H18.75V22.75C18.75 24.1307 17.6307 25.25 16.25 25.25H4.75C3.36929 25.25 2.25 24.1307 2.25 22.75V8.25Z" fill="#212529"/>
<path d="M6 9.25C6 8.83579 6.33579 8.5 6.75 8.5V8.5C7.16421 8.5 7.5 8.83579 7.5 9.25V9.25C7.5 9.66421 7.16421 10 6.75 10V10C6.33579 10 6 9.66421 6 9.25V9.25Z" fill="#212529"/>
<path d="M11 9.25C11 8.83579 11.3358 8.5 11.75 8.5V8.5C12.1642 8.5 12.5 8.83579 12.5 9.25V9.25C12.5 9.66421 12.1642 10 11.75 10V10C11.3358 10 11 9.66421 11 9.25V9.25Z" fill="#212529"/>
<path d="M13.5 9.25C13.5 8.83579 13.8358 8.5 14.25 8.5V8.5C14.6642 8.5 15 8.83579 15 9.25V9.25C15 9.66421 14.6642 10 14.25 10V10C13.8358 10 13.5 9.66421 13.5 9.25V9.25Z" fill="#212529"/>
<path d="M8.5 9.25C8.5 8.83579 8.83579 8.5 9.25 8.5V8.5C9.66421 8.5 10 8.83579 10 9.25V9.25C10 9.66421 9.66421 10 9.25 10V10C8.83579 10 8.5 9.66421 8.5 9.25V9.25Z" fill="#212529"/>
<path fill-rule="evenodd" clip-rule="evenodd" d="M6.75 11.5C7.30228 11.5 7.75 11.9477 7.75 12.5V13.5C7.75 14.0523 7.30228 14.5 6.75 14.5C6.19772 14.5 5.75 14.0523 5.75 13.5V12.5C5.75 11.9477 6.19772 11.5 6.75 11.5Z" fill="#212529"/>
<path fill-rule="evenodd" clip-rule="evenodd" d="M6.75 15C7.30228 15 7.75 15.4477 7.75 16V17C7.75 17.5523 7.30228 18 6.75 18C6.19772 18 5.75 17.5523 5.75 17V16C5.75 15.4477 6.19772 15 6.75 15Z" fill="#212529"/>
<path fill-rule="evenodd" clip-rule="evenodd" d="M6.75 18.5C7.30228 18.5 7.75 18.9477 7.75 19.5V20.5C7.75 21.0523 7.30228 21.5 6.75 21.5C6.19772 21.5 5.75 21.0523 5.75 20.5V19.5C5.75 18.9477 6.19772 18.5 6.75 18.5Z" fill="#212529"/>
<path fill-rule="evenodd" clip-rule="evenodd" d="M9.25 11.5C9.80228 11.5 10.25 11.9477 10.25 12.5V13.5C10.25 14.0523 9.80228 14.5 9.25 14.5C8.69772 14.5 8.25 14.0523 8.25 13.5V12.5C8.25 11.9477 8.69772 11.5 9.25 11.5Z" fill="#212529"/>
<path fill-rule="evenodd" clip-rule="evenodd" d="M9.25 15C9.80228 15 10.25 15.4477 10.25 16V17C10.25 17.5523 9.80228 18 9.25 18C8.69772 18 8.25 17.5523 8.25 17V16C8.25 15.4477 8.69772 15 9.25 15Z" fill="#212529"/>
<path fill-rule="evenodd" clip-rule="evenodd" d="M11.75 11.5C12.3023 11.5 12.75 11.9477 12.75 12.5V13.5C12.75 14.0523 12.3023 14.5 11.75 14.5C11.1977 14.5 10.75 14.0523 10.75 13.5V12.5C10.75 11.9477 11.1977 11.5 11.75 11.5Z" fill="#212529"/>
<path fill-rule="evenodd" clip-rule="evenodd" d="M11.75 15C12.3023 15 12.75 15.4477 12.75 16V17C12.75 17.5523 12.3023 18 11.75 18C11.1977 18 10.75 17.5523 10.75 17V16C10.75 15.4477 11.1977 15 11.75 15Z" fill="#212529"/>
<path fill-rule="evenodd" clip-rule="evenodd" d="M14.25 11.5C14.8023 11.5 15.25 11.9477 15.25 12.5V13.5C15.25 14.0523 14.8023 14.5 14.25 14.5C13.6977 14.5 13.25 14.0523 13.25 13.5V12.5C13.25 11.9477 13.6977 11.5 14.25 11.5Z" fill="#212529"/>
<path fill-rule="evenodd" clip-rule="evenodd" d="M14.25 15C14.8023 15 15.25 15.4477 15.25 16V17C15.25 17.5523 14.8023 18 14.25 18C13.6977 18 13.25 17.5523 13.25 17V16C13.25 15.4477 13.6977 15 14.25 15Z" fill="#212529"/>
<path fill-rule="evenodd" clip-rule="evenodd" d="M14.25 18.5C14.8023 18.5 15.25 18.9477 15.25 19.5V20.5C15.25 21.0523 14.8023 21.5 14.25 21.5C13.6977 21.5 13.25 21.0523 13.25 20.5V19.5C13.25 18.9477 13.6977 18.5 14.25 18.5Z" fill="#212529"/>
<path fill-rule="evenodd" clip-rule="evenodd" d="M8.25 21.5C8.25 20.2574 9.25736 19.25 10.5 19.25C11.7426 19.25 12.75 20.2574 12.75 21.5V25.125H8.25V21.5ZM10.5 21.25C10.3619 21.25 10.25 21.3619 10.25 21.5V23.125H10.75V21.5C10.75 21.3619 10.6381 21.25 10.5 21.25Z" fill="#212529"/>
<path fill-rule="evenodd" clip-rule="evenodd" d="M21.4999 14C20.9476 14 20.4999 14.4477 20.4999 15L20.4999 15.0063L20.5054 15.9174L19.5987 16.0074C18.8418 16.0826 18.2499 16.7228 18.2499 17.5V17.5625C18.2499 17.6251 18.2537 17.6864 18.261 17.7463L18.3358 18.3627L17.8164 18.7031C17.4732 18.9281 17.25 19.3132 17.25 19.7499C17.25 20.4403 17.8096 20.9999 18.5 20.9999H24.5C25.1904 20.9999 25.75 20.4403 25.75 19.7499C25.75 19.3132 25.5268 18.928 25.1835 18.7031L24.6641 18.3627L24.7389 17.7462C24.7461 17.6864 24.7499 17.6251 24.7499 17.5625V17.5C24.7499 16.7228 24.158 16.0826 23.4011 16.0074L22.4943 15.9174L22.4999 15.0062L22.4999 15C22.4999 14.4477 22.0522 14 21.4999 14ZM18.6106 14.1898C18.964 12.9266 20.1238 12 21.4999 12C22.876 12 24.0357 12.9265 24.3892 14.1898C25.7343 14.6527 26.7082 15.9112 26.7486 17.4035C27.3647 17.9942 27.75 18.8269 27.75 19.7499C27.75 21.5449 26.2949 22.9999 24.5 22.9999H18.5C16.7051 22.9999 15.25 21.5449 15.25 19.7499C15.25 18.827 15.6352 17.9944 16.2512 17.4037C16.2915 15.9113 17.2655 14.6528 18.6106 14.1898Z" fill="#212529"/>
<path d="M21.25 22.25C21.25 22.1119 21.3619 22 21.5 22V22C21.6381 22 21.75 22.1119 21.75 22.25V24C21.75 24.1381 21.6381 24.25 21.5 24.25V24.25C21.3619 24.25 21.25 24.1381 21.25 24V22.25Z" fill="#212529"/>
<path fill-rule="evenodd" clip-rule="evenodd" d="M20.25 22.25C20.25 21.5596 20.8096 21 21.5 21C22.1904 21 22.75 21.5596 22.75 22.25V24C22.75 24.6904 22.1904 25.25 21.5 25.25C20.8096 25.25 20.25 24.6904 20.25 24V22.25Z" fill="#212529"/>
</svg>
