<svg width="28" height="34" viewBox="0 0 28 34" fill="none" xmlns="http://www.w3.org/2000/svg">
<path fill-rule="evenodd" clip-rule="evenodd" d="M23.4522 0.901403C22.5372 -0.0136484 20.8391 0.200817 19.6595 1.38042L17.353 3.68696L23.9804 10.3143L26.2869 8.00781C27.4665 6.8282 27.681 5.13015 26.7659 4.2151L23.4522 0.901403ZM21.4804 12.8143L14.853 6.18696L2.77824 18.2617C2.24876 18.7912 1.8907 19.4544 1.77355 20.1226L0.677247 26.3757C0.607327 26.7745 0.892817 27.06 1.29163 26.9901L7.54476 25.8938C8.21297 25.7766 8.87614 25.4186 9.40563 24.8891L21.4804 12.8143Z" fill="#E5F8FB"/>
<path fill-rule="evenodd" clip-rule="evenodd" d="M0.666687 32.0006C0.666687 31.0802 1.41288 30.334 2.33335 30.334H25.6667C26.5872 30.334 27.3334 31.0802 27.3334 32.0006C27.3334 32.9211 26.5872 33.6673 25.6667 33.6673H2.33335C1.41288 33.6673 0.666687 32.9211 0.666687 32.0006Z" fill="#E5F8FB"/>
</svg>
