<svg width="20" height="22" viewBox="0 0 20 22" fill="none" xmlns="http://www.w3.org/2000/svg">
<path fill-rule="evenodd" clip-rule="evenodd" d="M5.4 0.851562C5.95228 0.851562 6.4 1.29928 6.4 1.85156V1.97803H13.55V1.85156C13.55 1.29928 13.9977 0.851562 14.55 0.851562C15.1023 0.851562 15.55 1.29928 15.55 1.85156V1.97803H16.75C18.5462 1.97803 20 3.43566 20 5.23097V18.7486C20 20.5439 18.5462 22.0016 16.75 22.0016H3.25C1.45384 22.0016 0 20.5439 0 18.7486V5.23097C0 3.43566 1.45384 1.97803 3.25 1.97803H4.4V1.85156C4.4 1.29928 4.84771 0.851563 5.4 0.851562ZM4.4 3.97803H3.25C2.56088 3.97803 2 4.53776 2 5.23097V7.61039H18V5.23097C18 4.53776 17.4391 3.97803 16.75 3.97803H15.55V5.38097C15.55 5.93326 15.1023 6.38097 14.55 6.38097C13.9977 6.38097 13.55 5.93326 13.55 5.38097V3.97803H6.4V5.38097C6.4 5.93326 5.95228 6.38097 5.4 6.38097C4.84772 6.38097 4.4 5.93326 4.4 5.38097V3.97803ZM18 9.61039H2V18.7486C2 19.4418 2.56088 20.0016 3.25 20.0016H16.75C17.4391 20.0016 18 19.4418 18 18.7486V9.61039Z" fill="#212529"/>
<path d="M4.39687 12.5906C4.39687 12.2826 4.64662 12.0328 4.95469 12.0328H6.07031C6.37838 12.0328 6.62812 12.2826 6.62812 12.5906V13.7063C6.62812 14.0143 6.37838 14.2641 6.07031 14.2641H4.95469C4.64662 14.2641 4.39687 14.0143 4.39687 13.7063V12.5906Z" fill="#212529"/>
<path d="M4.39687 15.9375C4.39687 15.6295 4.64662 15.3797 4.95469 15.3797H6.07031C6.37838 15.3797 6.62812 15.6295 6.62812 15.9375V17.0531C6.62812 17.3612 6.37838 17.611 6.07031 17.611H4.95469C4.64662 17.611 4.39687 17.3612 4.39687 17.0531V15.9375Z" fill="#212529"/>
<path d="M7.74375 15.9375C7.74375 15.6295 7.99349 15.3797 8.30156 15.3797H9.41719C9.72526 15.3797 9.975 15.6295 9.975 15.9375V17.0531C9.975 17.3612 9.72526 17.611 9.41719 17.611H8.30156C7.99349 17.611 7.74375 17.3612 7.74375 17.0531V15.9375Z" fill="#212529"/>
<path d="M7.74375 12.5906C7.74375 12.2826 7.99349 12.0328 8.30156 12.0328H9.41719C9.72526 12.0328 9.975 12.2826 9.975 12.5906V13.7063C9.975 14.0143 9.72526 14.2641 9.41719 14.2641H8.30156C7.99349 14.2641 7.74375 14.0143 7.74375 13.7063V12.5906Z" fill="#212529"/>
<path d="M11.0906 12.5906C11.0906 12.2826 11.3404 12.0328 11.6484 12.0328H12.7641C13.0721 12.0328 13.3219 12.2826 13.3219 12.5906V13.7063C13.3219 14.0143 13.0721 14.2641 12.7641 14.2641H11.6484C11.3404 14.2641 11.0906 14.0143 11.0906 13.7063V12.5906Z" fill="#212529"/>
</svg>
