<svg width="27" height="34" viewBox="0 0 27 34" fill="none" xmlns="http://www.w3.org/2000/svg">
<path fill-rule="evenodd" clip-rule="evenodd" d="M22.9525 0.89945C22.0375 -0.0156015 20.3394 0.198864 19.1598 1.37847L16.8533 3.685L23.4807 10.3124L25.7872 8.00586C26.9668 6.82625 27.1813 5.1282 26.2662 4.21314L22.9525 0.89945ZM20.9807 12.8124L14.3533 6.185L2.27854 18.2598C1.74906 18.7892 1.39101 19.4524 1.27386 20.1206L0.177552 26.3738C0.107632 26.7726 0.393122 27.0581 0.791931 26.9881L7.04507 25.8918C7.71327 25.7747 8.37645 25.4166 8.90593 24.8871L20.9807 12.8124Z" fill="#007B91"/>
<path fill-rule="evenodd" clip-rule="evenodd" d="M0.166992 31.9987C0.166992 31.0782 0.913184 30.332 1.83366 30.332H25.167C26.0875 30.332 26.8337 31.0782 26.8337 31.9987C26.8337 32.9192 26.0875 33.6654 25.167 33.6654H1.83366C0.913184 33.6654 0.166992 32.9192 0.166992 31.9987Z" fill="#007B91"/>
</svg>
