<svg width="26" height="26" viewBox="0 0 26 26" fill="none" xmlns="http://www.w3.org/2000/svg">
<path fill-rule="evenodd" clip-rule="evenodd" d="M13 22.875C18.5228 22.875 23 18.3978 23 12.875C23 7.35215 18.5228 2.875 13 2.875C7.47715 2.875 3 7.35215 3 12.875C3 18.3978 7.47715 22.875 13 22.875ZM13 25.375C19.9036 25.375 25.5 19.7786 25.5 12.875C25.5 5.97144 19.9036 0.375 13 0.375C6.09644 0.375 0.5 5.97144 0.5 12.875C0.5 19.7786 6.09644 25.375 13 25.375Z" fill="#008088"/>
<path fill-rule="evenodd" clip-rule="evenodd" d="M13 5.1875C13.6904 5.1875 14.25 5.74714 14.25 6.4375V12.8125C14.25 13.5029 13.6904 14.0625 13 14.0625C12.3096 14.0625 11.75 13.5029 11.75 12.8125V6.4375C11.75 5.74714 12.3096 5.1875 13 5.1875Z" fill="#008088"/>
<path fill-rule="evenodd" clip-rule="evenodd" d="M7.28823 15.5109C6.99868 14.8842 7.272 14.1414 7.8987 13.8519L12.4377 11.7548C13.0644 11.4652 13.8071 11.7386 14.0967 12.3653C14.3862 12.992 14.1129 13.7347 13.4862 14.0243L8.94724 16.1214C8.32054 16.4109 7.57778 16.1376 7.28823 15.5109Z" fill="#008088"/>
</svg>
