<svg width="20" height="20" viewBox="0 0 20 20" fill="none" xmlns="http://www.w3.org/2000/svg">
<path fill-rule="evenodd" clip-rule="evenodd" d="M9.99992 2.5C8.48113 2.5 7.24992 3.73122 7.24992 5.25C7.24992 6.76878 8.48113 8 9.99992 8C11.5187 8 12.7499 6.76878 12.7499 5.25C12.7499 3.73122 11.5187 2.5 9.99992 2.5ZM4.74992 5.25C4.74992 2.3505 7.10042 0 9.99992 0C12.8994 0 15.2499 2.3505 15.2499 5.25C15.2499 8.1495 12.8994 10.5 9.99992 10.5C7.10042 10.5 4.74992 8.1495 4.74992 5.25Z" fill="#212529"/>
<path fill-rule="evenodd" clip-rule="evenodd" d="M2.63037 17.5H17.3696C16.7242 14.4354 13.7517 12 10 12C6.2483 12 3.27576 14.4354 2.63037 17.5ZM0 18.75C0 13.5383 4.58495 9.49999 10 9.49999C15.4151 9.49999 20 13.5383 20 18.75C20 19.4403 19.4404 20 18.75 20H1.25C0.559644 20 0 19.4403 0 18.75Z" fill="#212529"/>
</svg>
