<svg width="60" height="43" viewBox="0 0 60 43" fill="none" xmlns="http://www.w3.org/2000/svg">
<path fill-rule="evenodd" clip-rule="evenodd" d="M43.1211 12.6664C40.7338 12.6664 38.7985 14.6017 38.7985 16.989C38.7985 19.3763 40.7338 21.3116 43.1211 21.3116C45.5084 21.3116 47.4437 19.3763 47.4437 16.989C47.4437 14.6017 45.5084 12.6664 43.1211 12.6664ZM32.9652 16.989C32.9652 11.38 37.5121 6.83308 43.1211 6.83308C48.73 6.83308 53.277 11.38 53.277 16.989C53.277 22.598 48.73 27.1449 43.1211 27.1449C37.5121 27.1449 32.9652 22.598 32.9652 16.989Z" fill="#20BFC8"/>
<path fill-rule="evenodd" clip-rule="evenodd" d="M43.121 29.8747C40.0604 29.8747 37.3371 31.1577 35.4754 33.1687C34.3811 34.3507 32.5357 34.4219 31.3537 33.3276C30.1716 32.2333 30.1005 30.3879 31.1948 29.2058C34.1386 26.026 38.4032 24.0414 43.121 24.0414C51.8811 24.0414 59.1588 30.9236 59.1588 39.6268C59.1588 41.2376 57.853 42.5434 56.2421 42.5434H36.4894C34.8786 42.5434 33.5728 41.2376 33.5728 39.6268C33.5728 38.0159 34.8786 36.7101 36.4894 36.7101H52.858C51.5705 32.7942 47.7585 29.8747 43.121 29.8747Z" fill="#20BFC8"/>
<path fill-rule="evenodd" clip-rule="evenodd" d="M19.5844 6.54134C16.3704 6.54134 13.7649 9.14685 13.7649 12.3609C13.7649 15.575 16.3704 18.1805 19.5844 18.1805C22.7985 18.1805 25.404 15.575 25.404 12.3609C25.404 9.14685 22.7985 6.54134 19.5844 6.54134ZM7.93154 12.3609C7.93154 5.92519 13.1487 0.708008 19.5844 0.708008C26.0202 0.708008 31.2374 5.92519 31.2374 12.3609C31.2374 18.7966 26.0202 24.0138 19.5844 24.0138C13.1487 24.0138 7.93154 18.7966 7.93154 12.3609Z" fill="#20BFC8"/>
<path fill-rule="evenodd" clip-rule="evenodd" d="M7.03007 36.7048H32.1388C30.7774 31.3335 25.741 27.2497 19.5844 27.2497C13.4279 27.2497 8.39146 31.3335 7.03007 36.7048ZM0.833344 39.6214C0.833344 29.4714 9.32582 21.4163 19.5844 21.4163C29.8431 21.4163 38.3355 29.4714 38.3355 39.6214C38.3355 41.2323 37.0297 42.5381 35.4189 42.5381H3.75001C2.13918 42.5381 0.833344 41.2323 0.833344 39.6214Z" fill="#20BFC8"/>
</svg>
