<svg width="20" height="26" viewBox="0 0 20 26" fill="none" xmlns="http://www.w3.org/2000/svg">
<path fill-rule="evenodd" clip-rule="evenodd" d="M5 19.0257C5 18.5079 5.41973 18.0882 5.9375 18.0882H14.0625C14.5803 18.0882 15 18.5079 15 19.0257C15 19.5435 14.5803 19.9632 14.0625 19.9632H5.9375C5.41973 19.9632 5 19.5435 5 19.0257Z" fill="white"/>
<path fill-rule="evenodd" clip-rule="evenodd" d="M5 7.83823C5 7.32047 5.41973 6.90073 5.9375 6.90073L9.0625 6.90074C9.58027 6.90074 10 7.32047 10 7.83824C10 8.356 9.58027 8.77573 9.0625 8.77573H5.9375C5.41973 8.77573 5 8.356 5 7.83823Z" fill="white"/>
<path fill-rule="evenodd" clip-rule="evenodd" d="M5 15.5257C5 15.0079 5.41973 14.5882 5.9375 14.5882H14.0625C14.5803 14.5882 15 15.0079 15 15.5257C15 16.0435 14.5803 16.4632 14.0625 16.4632H5.9375C5.41973 16.4632 5 16.0435 5 15.5257Z" fill="white"/>
<path fill-rule="evenodd" clip-rule="evenodd" d="M5 12.0257C5 11.5079 5.41973 11.0882 5.9375 11.0882H14.0625C14.5803 11.0882 15 11.5079 15 12.0257C15 12.5435 14.5803 12.9632 14.0625 12.9632H5.9375C5.41973 12.9632 5 12.5435 5 12.0257Z" fill="white"/>
<path fill-rule="evenodd" clip-rule="evenodd" d="M0 4.25C0 2.17893 1.67893 0.5 3.75 0.5H16.25C18.3211 0.5 20 2.17893 20 4.25V21.75C20 23.8211 18.3211 25.5 16.25 25.5H3.75C1.67893 25.5 0 23.8211 0 21.75V4.25ZM3.75 3C3.05964 3 2.5 3.55964 2.5 4.25V21.75C2.5 22.4404 3.05964 23 3.75 23H16.25C16.9404 23 17.5 22.4404 17.5 21.75V4.25C17.5 3.55964 16.9404 3 16.25 3H3.75Z" fill="white"/>
</svg>
