<svg width="20" height="16" viewBox="0 0 20 16" fill="none" xmlns="http://www.w3.org/2000/svg">
<path fill-rule="evenodd" clip-rule="evenodd" d="M14.4987 4.79924C13.6802 4.79924 13.0166 5.46277 13.0166 6.28127C13.0166 7.09977 13.6802 7.7633 14.4987 7.7633C15.3172 7.7633 15.9807 7.09977 15.9807 6.28127C15.9807 5.46277 15.3172 4.79924 14.4987 4.79924ZM11.0166 6.28127C11.0166 4.3582 12.5756 2.79924 14.4987 2.79924C16.4217 2.79924 17.9807 4.3582 17.9807 6.28127C17.9807 8.20434 16.4217 9.7633 14.4987 9.7633C12.5756 9.7633 11.0166 8.20434 11.0166 6.28127Z" fill="#008088"/>
<path fill-rule="evenodd" clip-rule="evenodd" d="M14.4986 10.6992C13.4493 10.6992 12.5156 11.1391 11.8773 11.8286C11.5021 12.2339 10.8694 12.2583 10.4641 11.8831C10.0588 11.5079 10.0344 10.8752 10.4096 10.4699C11.4189 9.37966 12.8811 8.69924 14.4986 8.69924C17.5021 8.69924 19.9973 11.0588 19.9973 14.0428C19.9973 14.5951 19.5496 15.0428 18.9973 15.0428H12.2249C11.6727 15.0428 11.2249 14.5951 11.2249 14.0428C11.2249 13.4905 11.6727 13.0428 12.2249 13.0428H17.837C17.3956 11.7002 16.0886 10.6992 14.4986 10.6992Z" fill="#008088"/>
<path fill-rule="evenodd" clip-rule="evenodd" d="M6.42895 2.69922C5.32699 2.69922 4.43367 3.59254 4.43367 4.6945C4.43367 5.79646 5.32699 6.68978 6.42895 6.68978C7.53091 6.68978 8.42423 5.79646 8.42423 4.6945C8.42423 3.59254 7.53091 2.69922 6.42895 2.69922ZM2.43367 4.6945C2.43367 2.48797 4.22242 0.699219 6.42895 0.699219C8.63548 0.699219 10.4242 2.48797 10.4242 4.6945C10.4242 6.90104 8.63548 8.68978 6.42895 8.68978C4.22242 8.68978 2.43367 6.90104 2.43367 4.6945Z" fill="#008088"/>
<path fill-rule="evenodd" clip-rule="evenodd" d="M2.12459 13.041H10.7333C10.2665 11.1994 8.53976 9.79922 6.42895 9.79922C4.31814 9.79922 2.59136 11.1994 2.12459 13.041ZM0 14.041C0 10.561 2.91171 7.79922 6.42895 7.79922C9.94619 7.79922 12.8579 10.561 12.8579 14.041C12.8579 14.5932 12.4102 15.041 11.8579 15.041H1C0.447715 15.041 0 14.5932 0 14.041Z" fill="#008088"/>
</svg>
