<svg width="16" height="20" viewBox="0 0 16 20" fill="none" xmlns="http://www.w3.org/2000/svg">
<path d="M9.50098 7.4C9.50098 8.22843 8.8294 8.9 8.00098 8.9C7.17255 8.9 6.50098 8.22843 6.50098 7.4C6.50098 6.57157 7.17255 5.9 8.00098 5.9C8.8294 5.9 9.50098 6.57157 9.50098 7.4Z" fill="#008088"/>
<path fill-rule="evenodd" clip-rule="evenodd" d="M8.01406 0C5.50618 0 3.49199 0.944337 2.11234 2.45912C0.745196 3.96016 0.0507812 5.96517 0.0507812 8.02439C0.0507812 10.3914 1.40761 12.8498 2.89447 14.8649C4.41052 16.9195 6.20254 18.6983 7.33913 19.7379C7.7365 20.1014 8.35034 20.0849 8.72763 19.7006C8.84206 19.584 8.97084 19.4543 9.11166 19.3125C10.0793 18.3377 11.6155 16.7903 12.9698 15.0097C14.4942 13.0054 15.9508 10.5032 15.9508 8.02439C15.9508 3.99451 13.1476 0 8.01406 0ZM11.501 7.4C11.501 9.333 9.93398 10.9 8.00098 10.9C6.06798 10.9 4.50098 9.333 4.50098 7.4C4.50098 5.467 6.06798 3.9 8.00098 3.9C9.93398 3.9 11.501 5.467 11.501 7.4Z" fill="#008088"/>
</svg>
