<svg width="18" height="17" viewBox="0 0 18 17" fill="none" xmlns="http://www.w3.org/2000/svg">
<path fill-rule="evenodd" clip-rule="evenodd" d="M15.95 2C15.9776 2 16 2.02239 16 2.05V10.95C16 10.9776 15.9776 11 15.95 11H9.40515L5.38132 13.9819V11H2.05C2.02238 11 2 10.9776 2 10.95V2.05C2 2.02239 2.02238 2 2.05 2H15.95ZM18 2.05C18 0.917817 17.0822 0 15.95 0H2.05C0.917812 0 -1.90735e-06 0.917817 -1.90735e-06 2.05V10.95C-1.90735e-06 12.0822 0.917814 13 2.05 13H3.38132V15.4987C3.38132 16.5141 4.53764 17.0964 5.35341 16.4919L10.0654 13H15.95C17.0822 13 18 12.0822 18 10.95V2.05Z" fill="#212529"/>
</svg>
