<svg width="38" height="48" viewBox="0 0 38 48" fill="none" xmlns="http://www.w3.org/2000/svg">
<path fill-rule="evenodd" clip-rule="evenodd" d="M9.66537 35.2493C9.66537 34.2828 10.4489 33.4993 11.4154 33.4993H26.582C27.5485 33.4993 28.332 34.2828 28.332 35.2493C28.332 36.2158 27.5485 36.9993 26.582 36.9993H11.4154C10.4489 36.9993 9.66537 36.2158 9.66537 35.2493Z" fill="#7AEEF4"/>
<path fill-rule="evenodd" clip-rule="evenodd" d="M9.66537 14.366C9.66537 13.3995 10.4489 12.616 11.4154 12.616L17.2487 12.616C18.2152 12.616 18.9987 13.3995 18.9987 14.366C18.9987 15.3325 18.2152 16.116 17.2487 16.116L11.4154 16.116C10.4489 16.116 9.66537 15.3325 9.66537 14.366Z" fill="#7AEEF4"/>
<path fill-rule="evenodd" clip-rule="evenodd" d="M9.66537 28.716C9.66537 27.7495 10.4489 26.966 11.4154 26.966H26.582C27.5485 26.966 28.332 27.7495 28.332 28.716C28.332 29.6825 27.5485 30.466 26.582 30.466H11.4154C10.4489 30.466 9.66537 29.6825 9.66537 28.716Z" fill="#7AEEF4"/>
<path fill-rule="evenodd" clip-rule="evenodd" d="M9.66537 22.1826C9.66537 21.2161 10.4489 20.4326 11.4154 20.4326H26.582C27.5485 20.4326 28.332 21.2161 28.332 22.1826C28.332 23.1491 27.5485 23.9326 26.582 23.9326H11.4154C10.4489 23.9326 9.66537 23.1491 9.66537 22.1826Z" fill="#7AEEF4"/>
<path fill-rule="evenodd" clip-rule="evenodd" d="M0.332031 7.66797C0.332031 3.80197 3.46604 0.667969 7.33203 0.667969H30.6654C34.5314 0.667969 37.6654 3.80198 37.6654 7.66797V40.3346C37.6654 44.2006 34.5314 47.3346 30.6654 47.3346H7.33203C3.46604 47.3346 0.332031 44.2006 0.332031 40.3346V7.66797ZM7.33203 5.33464C6.04337 5.33464 4.9987 6.3793 4.9987 7.66797V40.3346C4.9987 41.6233 6.04337 42.668 7.33203 42.668H30.6654C31.954 42.668 32.9987 41.6233 32.9987 40.3346V7.66797C32.9987 6.3793 31.954 5.33464 30.6654 5.33464H7.33203Z" fill="#7AEEF4"/>
</svg>
