<svg width="23" height="26" viewBox="0 0 23 26" fill="none" xmlns="http://www.w3.org/2000/svg">
<path fill-rule="evenodd" clip-rule="evenodd" d="M3 0.5L3 23H6.9375C7.62786 23 8.1875 23.5596 8.1875 24.25C8.1875 24.9404 7.62786 25.5 6.9375 25.5H3C1.61929 25.5 0.5 24.3807 0.5 23V3C0.5 1.61929 1.61929 0.5 3 0.5ZM16.9375 8.5V10.375C16.9375 11.0654 17.4971 11.625 18.1875 11.625C18.8779 11.625 19.4375 11.0654 19.4375 10.375V7.25C19.4375 6.92095 19.3078 6.60518 19.0764 6.37118L13.6389 0.871182C13.4041 0.633665 13.084 0.5 12.75 0.5H3L3 3L11.5 3V7.25C11.5 7.94036 12.0596 8.5 12.75 8.5H16.9375ZM15.194 6H14V4.79232L15.194 6Z" fill="white"/>
<path fill-rule="evenodd" clip-rule="evenodd" d="M20.6273 13.3271C20.2005 12.9004 19.4086 13.0004 18.8584 13.5506L17.7826 14.6264L20.8736 17.7174L21.9494 16.6416C22.4996 16.0914 22.5996 15.2995 22.1729 14.8727L20.6273 13.3271ZM19.7076 18.8834L16.6166 15.7924L10.9848 21.4241C10.7379 21.6711 10.5709 21.9804 10.5162 22.292L10.0049 25.2085C9.97231 25.3945 10.1055 25.5277 10.2915 25.4951L13.208 24.9838C13.5196 24.9291 13.8289 24.7621 14.0759 24.5152L19.7076 18.8834Z" fill="white"/>
</svg>
