<svg width="20" height="16" viewBox="0 0 20 16" fill="none" xmlns="http://www.w3.org/2000/svg">
<path fill-rule="evenodd" clip-rule="evenodd" d="M0.0492947 12C0.0492947 14.2091 1.84016 16 4.04929 16C6.25843 16 8.04929 14.2091 8.04929 12H0.0492947Z" fill="#008088"/>
<path fill-rule="evenodd" clip-rule="evenodd" d="M0.0996047 12.05C0.12638 14.2085 1.88446 15.95 4.04929 15.95C6.21413 15.95 7.97221 14.2085 7.99898 12.05H0.0996047ZM0.0496008 12.05C0.0493969 12.0334 0.0492947 12.0167 0.0492947 12H8.04929C8.04929 12.0167 8.04919 12.0334 8.04899 12.05C8.02221 14.2361 6.24174 16 4.04929 16C1.85685 16 0.0763796 14.2361 0.0496008 12.05Z" fill="#008088"/>
<path fill-rule="evenodd" clip-rule="evenodd" d="M4.02135 3.05C4.43743 3.04886 4.81075 3.30548 4.95873 3.69437L7.98373 11.6444C8.18013 12.1606 7.92091 12.7382 7.40473 12.9346C6.88855 13.131 6.31088 12.8718 6.11447 12.3556L4.0319 6.88241L1.98567 12.3505C1.79211 12.8677 1.21588 13.1301 0.698621 12.9366C0.181368 12.743 -0.0810353 12.1668 0.112528 11.6495L3.08753 3.69952C3.23336 3.30982 3.60526 3.05115 4.02135 3.05Z" fill="#008088"/>
<path fill-rule="evenodd" clip-rule="evenodd" d="M11.9991 11.9999C11.9991 14.209 13.79 15.9999 15.9991 15.9999C18.2082 15.9999 19.9991 14.209 19.9991 11.9999H11.9991Z" fill="#008088"/>
<path fill-rule="evenodd" clip-rule="evenodd" d="M12.0494 12.0499C12.0762 14.2084 13.8343 15.9499 15.9991 15.9499C18.1639 15.9499 19.922 14.2084 19.9488 12.0499H12.0494ZM11.9994 12.0499C11.9992 12.0332 11.9991 12.0166 11.9991 11.9999H19.9991C19.9991 12.0166 19.999 12.0332 19.9988 12.0499C19.972 14.236 18.1915 15.9999 15.9991 15.9999C13.8067 15.9999 12.0262 14.236 11.9994 12.0499Z" fill="#008088"/>
<path fill-rule="evenodd" clip-rule="evenodd" d="M15.9716 3.04993C16.3877 3.04879 16.761 3.30541 16.909 3.6943L19.934 11.6443C20.1304 12.1605 19.8712 12.7381 19.355 12.9346C18.8388 13.131 18.2612 12.8717 18.0647 12.3556L15.9822 6.88234L13.9359 12.3504C13.7424 12.8677 13.1661 13.1301 12.6489 12.9365C12.1316 12.7429 11.8692 12.1667 12.0628 11.6494L15.0378 3.69945C15.1836 3.30975 15.5555 3.05108 15.9716 3.04993Z" fill="#008088"/>
<path d="M12.0978 3.38907C12.582 3.3879 13.0618 3.56262 13.3909 3.74962C13.5608 3.84617 13.7377 3.94887 13.9171 4.05305C14.2889 4.26893 14.6717 4.49118 15.0262 4.67832C15.5548 4.95741 16.1405 5.22592 16.7244 5.33567C16.986 5.38485 17.2429 5.32598 17.4491 5.19048L17.0491 4.15L16.3991 3.15469C16.2614 3.09202 16.1115 3.01777 15.9483 2.93161C15.6276 2.76234 15.3066 2.57584 14.958 2.37328C14.7704 2.26424 14.5747 2.15054 14.3668 2.03237C13.8305 1.72763 13.013 1.4117 12.093 1.41392C11.1339 1.41624 10.0975 1.76852 9.24666 2.7456C8.88847 3.15693 8.93156 3.78074 9.3429 4.13892C9.75423 4.4971 10.378 4.45402 10.7362 4.04268C11.178 3.53531 11.6527 3.39014 12.0978 3.38907Z" fill="#008088"/>
<path d="M7.89828 3.38907C7.41404 3.3879 6.93421 3.56262 6.60514 3.74962C6.43524 3.84617 6.25836 3.94887 6.07894 4.05305C5.70714 4.26893 5.32435 4.49119 4.96988 4.67832C4.4412 4.95742 3.8555 5.22592 3.27166 5.33567C3.00433 5.38593 2.74192 5.32336 2.53352 5.18151L3.2241 3.45L3.6348 3.13732C3.76203 3.07843 3.89941 3.00994 4.04778 2.93162C4.36843 2.76234 4.68939 2.57584 5.03799 2.37329C5.22566 2.26424 5.42134 2.15054 5.62928 2.03237C6.16553 1.72764 6.98308 1.4117 7.90305 1.41392C8.86216 1.41624 9.89857 1.76852 10.7494 2.7456C11.1076 3.15693 11.0645 3.78075 10.6531 4.13893C10.2418 4.49711 9.618 4.45402 9.25982 4.04268C8.81801 3.53531 8.34338 3.39015 7.89828 3.38907Z" fill="#008088"/>
<path d="M8.9991 0.999999C8.9991 0.447714 9.44681 0 9.9991 0C10.5514 0 10.9991 0.447715 10.9991 1V4.35C10.9991 4.90229 10.5514 5.35 9.9991 5.35C9.44681 5.35 8.9991 4.90228 8.9991 4.35V0.999999Z" fill="#008088"/>
</svg>
