<svg width="18" height="20" viewBox="0 0 18 20" fill="none" xmlns="http://www.w3.org/2000/svg">
<path fill-rule="evenodd" clip-rule="evenodd" d="M1.6001 9L0.850098 9.00002L0.850098 12.1192C0.850096 12.3181 0.929113 12.5097 1.06977 12.6503C1.21042 12.791 1.40118 12.87 1.6001 12.87H3.2001C4.47996 12.87 5.5501 11.8536 5.5501 10.56C5.5501 9.26644 4.47996 8.25 3.2001 8.25H1.60093L1.6001 9ZM2.3501 9.75L2.3501 11.37H3.2001C3.68755 11.37 4.0501 10.9896 4.0501 10.56C4.0501 10.1304 3.68755 9.75 3.2001 9.75H2.3501ZM1.6001 9L1.60093 8.25C1.40202 8.25 1.21042 8.32902 1.06977 8.46967C0.929113 8.61033 0.850096 8.80111 0.850098 9.00002L1.6001 9Z" fill="#212529"/>
<path fill-rule="evenodd" clip-rule="evenodd" d="M1.60093 8.25C2.01515 8.25 2.3501 8.58579 2.3501 9V14.2C2.3501 14.6142 2.01431 14.95 1.6001 14.95C1.18588 14.95 0.850098 14.6142 0.850098 14.2L0.850098 9.00002C0.850098 8.58581 1.18672 8.25 1.60093 8.25Z" fill="#212529"/>
<path fill-rule="evenodd" clip-rule="evenodd" d="M6.6499 9C6.6499 8.58579 6.98569 8.25 7.3999 8.25H8.2999C10.1784 8.25 11.7499 9.72342 11.7499 11.6C11.7499 13.4766 10.1784 14.95 8.2999 14.95H7.3999C6.98569 14.95 6.6499 14.6142 6.6499 14.2V9ZM8.1499 9.75V13.45H8.2999C9.40379 13.45 10.2499 12.5953 10.2499 11.6C10.2499 10.6047 9.40379 9.75 8.2999 9.75H8.1499Z" fill="#212529"/>
<path fill-rule="evenodd" clip-rule="evenodd" d="M13.5996 8.25V9L12.8496 9.00001C12.8496 8.80109 12.9286 8.61033 13.0693 8.46967C13.2099 8.32902 13.4007 8.25 13.5996 8.25ZM14.3496 9.75H16.3996C16.8138 9.75 17.1496 9.41421 17.1496 9C17.1496 8.58579 16.8138 8.25 16.3996 8.25H13.5996V9L12.8496 9.00001V11.7726C12.8496 11.9715 12.9286 12.163 13.0693 12.3037C13.2099 12.4443 13.4007 12.5233 13.5996 12.5233L15.6996 12.5233C16.1138 12.5233 16.4496 12.1875 16.4496 11.7733C16.4496 11.3591 16.1138 11.0233 15.6996 11.0233L14.3496 11.0233V9.75Z" fill="#212529"/>
<path fill-rule="evenodd" clip-rule="evenodd" d="M13.5996 8.25C14.0138 8.25 14.3496 8.58578 14.3496 9V14.2C14.3496 14.6142 14.0138 14.95 13.5996 14.95C13.1854 14.95 12.8496 14.6142 12.8496 14.2V9.00001C12.8496 8.58579 13.1854 8.25 13.5996 8.25Z" fill="#212529"/>
<path d="M11.3 5.5H15.55L11.3 1V5.5Z" fill="#212529"/>
<path fill-rule="evenodd" clip-rule="evenodd" d="M1.4 2C1.4 0.895428 2.29543 0 3.4 0H11.3C11.5751 0 11.8381 0.113354 12.027 0.313376L16.277 4.81338C16.5512 5.10365 16.6264 5.52918 16.4683 5.89584C16.3103 6.2625 15.9493 6.5 15.55 6.5H11.3C10.7477 6.5 10.3 6.05229 10.3 5.5V2H3.4L3.4 6.6C3.4 7.15229 2.95229 7.6 2.4 7.6C1.84772 7.6 1.4 7.15229 1.4 6.6V2ZM12.3 3.51523L13.2301 4.5H12.3V3.51523ZM2.4 15.6C2.95229 15.6 3.4 16.0477 3.4 16.6V18H14.55V16.6C14.55 16.0477 14.9977 15.6 15.55 15.6C16.1023 15.6 16.55 16.0477 16.55 16.6V18C16.55 19.1046 15.6546 20 14.55 20H3.4C2.29543 20 1.4 19.1046 1.4 18V16.6C1.4 16.0477 1.84772 15.6 2.4 15.6Z" fill="#212529"/>
</svg>
