<svg width="20" height="16" viewBox="0 0 20 16" fill="none" xmlns="http://www.w3.org/2000/svg">
<path fill-rule="evenodd" clip-rule="evenodd" d="M7.1999 3C7.1999 1.34315 8.54304 0 10.1999 0H14.1999C15.8568 0 17.1999 1.34315 17.1999 3H16.1999V4H8.1999V3H7.1999ZM10.1993 2H14.2005C14.2003 2 14.2007 2 14.2005 2H10.1993C10.1995 2 10.1991 2 10.1993 2Z" fill="#212529"/>
<path fill-rule="evenodd" clip-rule="evenodd" d="M2.79976 2.60006C2.79976 1.60595 3.60565 0.800059 4.59976 0.800059C5.59387 0.800059 6.39976 1.60595 6.39976 2.60006V4.00006H2.79976V2.60006Z" fill="#212529"/>
<path fill-rule="evenodd" clip-rule="evenodd" d="M12.2248 6.8001C10.9886 6.8001 9.99983 7.7924 9.99983 9.0001C9.99983 10.2078 10.9886 11.2001 12.2248 11.2001C13.461 11.2001 14.4498 10.2078 14.4498 9.0001C14.4498 7.7924 13.461 6.8001 12.2248 6.8001ZM7.99983 9.0001C7.99983 6.67318 9.89878 4.8001 12.2248 4.8001C14.5509 4.8001 16.4498 6.67318 16.4498 9.0001C16.4498 11.327 14.5509 13.2001 12.2248 13.2001C9.89878 13.2001 7.99983 11.327 7.99983 9.0001Z" fill="#212529"/>
<path d="M17.6 5.40009C17.6 5.95238 17.1523 6.40009 16.6 6.40009C16.0477 6.40009 15.6 5.95238 15.6 5.40009C15.6 4.84781 16.0477 4.40009 16.6 4.40009C17.1523 4.40009 17.6 4.84781 17.6 5.40009Z" fill="#212529"/>
<path fill-rule="evenodd" clip-rule="evenodd" d="M4.40014 2.00008H17.0001C18.657 2.00008 20.0001 3.34323 20.0001 5.00008V13.0001C20.0001 14.6569 18.657 16.0001 17.0001 16.0001H4.40014V2.00008ZM6.39976 4.00006L6.40014 14.0001H17.0001C17.5524 14.0001 18.0001 13.5524 18.0001 13.0001V5.00008C18.0001 4.4478 17.5524 4.00008 17.0001 4.00008L6.39976 4.00006Z" fill="#212529"/>
<path fill-rule="evenodd" clip-rule="evenodd" d="M0 5.00008C0 3.34323 1.34315 2.00008 3 2.00008H6.4V16.0001H3C1.34315 16.0001 0 14.6569 0 13.0001V5.00008ZM3 4.00008C2.44772 4.00008 2 4.4478 2 5.00008V13.0001C2 13.5524 2.44772 14.0001 3 14.0001H4.4V4.00008H3Z" fill="#212529"/>
</svg>
