<svg width="12" height="14" viewBox="0 0 12 14" fill="none" xmlns="http://www.w3.org/2000/svg">
<path fill-rule="evenodd" clip-rule="evenodd" d="M0.667969 2.33424C0.667969 1.96605 0.966446 1.66757 1.33464 1.66757L10.668 1.66757C11.0362 1.66757 11.3346 1.96605 11.3346 2.33424C11.3346 2.70243 11.0362 3.00091 10.668 3.00091L1.33464 3.00091C0.966446 3.00091 0.667969 2.70243 0.667969 2.33424Z" fill="#CC2434"/>
<path d="M7.33463 1.66536C7.33463 2.40174 6.73768 2.9987 6.0013 2.9987C5.26492 2.9987 4.66797 2.40174 4.66797 1.66536C4.66797 0.928985 5.26492 0.332031 6.0013 0.332031C6.73768 0.332031 7.33463 0.928985 7.33463 1.66536Z" fill="#CC2434"/>
<path fill-rule="evenodd" clip-rule="evenodd" d="M1.46663 3.9987V11.3295C1.46663 12.6196 2.51242 13.6654 3.80247 13.6654H8.13079C9.42084 13.6654 10.4666 12.6196 10.4666 11.3295V3.9987H1.46663ZM2.79997 5.33243H9.1333V11.3295C9.1333 11.8832 8.68446 12.332 8.13079 12.332H3.80247C3.2488 12.332 2.79997 11.8832 2.79997 11.3295V5.33243Z" fill="#CC2434"/>
<path fill-rule="evenodd" clip-rule="evenodd" d="M4.66797 10.9987C4.29978 10.9987 4.0013 10.7002 4.0013 10.332V7.33203C4.0013 6.96384 4.29978 6.66536 4.66797 6.66536C5.03616 6.66536 5.33463 6.96384 5.33463 7.33203V10.332C5.33463 10.7002 5.03616 10.9987 4.66797 10.9987Z" fill="#CC2434"/>
<path fill-rule="evenodd" clip-rule="evenodd" d="M7.33463 6.66536C7.70282 6.66536 8.0013 6.96384 8.0013 7.33203V10.332C8.0013 10.7002 7.70282 10.9987 7.33463 10.9987C6.96644 10.9987 6.66797 10.7002 6.66797 10.332V7.33203C6.66797 6.96384 6.96644 6.66536 7.33463 6.66536Z" fill="#CC2434"/>
</svg>
