<svg width="15" height="15" viewBox="0 0 15 15" fill="none" xmlns="http://www.w3.org/2000/svg">
<path fill-rule="evenodd" clip-rule="evenodd" d="M1.36648 13.7494C0.878321 13.2612 0.878321 12.4698 1.36648 11.9816L12.857 0.491116C13.3451 0.00296149 14.1366 0.00296097 14.6247 0.491116C15.1129 0.979272 15.1129 1.77073 14.6247 2.25888L3.13424 13.7494C2.64609 14.2375 1.85463 14.2375 1.36648 13.7494Z" fill="#CB111D"/>
<path fill-rule="evenodd" clip-rule="evenodd" d="M1.32931 0.491144C1.81747 0.0029885 2.60892 0.0029885 3.09708 0.491144L14.5876 11.9816C15.0757 12.4698 15.0757 13.2612 14.5876 13.7494C14.0994 14.2376 13.308 14.2376 12.8198 13.7494L1.32931 2.25891C0.841157 1.77076 0.841157 0.979299 1.32931 0.491144Z" fill="#CB111D"/>
</svg>
