<svg width="20" height="26" viewBox="0 0 20 26" fill="none" xmlns="http://www.w3.org/2000/svg">
<path fill-rule="evenodd" clip-rule="evenodd" d="M5 18.8597C5 18.3419 5.41973 17.9222 5.9375 17.9222H14.0625C14.5803 17.9222 15 18.3419 15 18.8597C15 19.3775 14.5803 19.7972 14.0625 19.7972H5.9375C5.41973 19.7972 5 19.3775 5 18.8597Z" fill="#008088"/>
<path fill-rule="evenodd" clip-rule="evenodd" d="M5 7.67222C5 7.15445 5.41973 6.73472 5.9375 6.73472L9.0625 6.73472C9.58027 6.73472 10 7.15445 10 7.67222C10 8.18999 9.58027 8.60972 9.0625 8.60972H5.9375C5.41973 8.60972 5 8.18999 5 7.67222Z" fill="#008088"/>
<path fill-rule="evenodd" clip-rule="evenodd" d="M5 15.3597C5 14.8419 5.41973 14.4222 5.9375 14.4222H14.0625C14.5803 14.4222 15 14.8419 15 15.3597C15 15.8775 14.5803 16.2972 14.0625 16.2972H5.9375C5.41973 16.2972 5 15.8775 5 15.3597Z" fill="#008088"/>
<path fill-rule="evenodd" clip-rule="evenodd" d="M5 11.8597C5 11.3419 5.41973 10.9222 5.9375 10.9222H14.0625C14.5803 10.9222 15 11.3419 15 11.8597C15 12.3775 14.5803 12.7972 14.0625 12.7972H5.9375C5.41973 12.7972 5 12.3775 5 11.8597Z" fill="#008088"/>
<path fill-rule="evenodd" clip-rule="evenodd" d="M0 4.08398C0 2.01292 1.67893 0.333984 3.75 0.333984H16.25C18.3211 0.333984 20 2.01292 20 4.08398V21.584C20 23.6551 18.3211 25.334 16.25 25.334H3.75C1.67893 25.334 0 23.6551 0 21.584V4.08398ZM3.75 2.83398C3.05964 2.83398 2.5 3.39363 2.5 4.08398V21.584C2.5 22.2743 3.05964 22.834 3.75 22.834H16.25C16.9404 22.834 17.5 22.2743 17.5 21.584V4.08398C17.5 3.39363 16.9404 2.83398 16.25 2.83398H3.75Z" fill="#008088"/>
</svg>
