<svg width="20" height="20" viewBox="0 0 20 20" fill="none" xmlns="http://www.w3.org/2000/svg">
<path fill-rule="evenodd" clip-rule="evenodd" d="M0.761229 13.8268C0.258682 12.6136 2.43187e-05 11.3132 2.41995e-05 10H2.00002C2.00002 11.0506 2.20695 12.0909 2.60899 13.0615C3.01103 14.0321 3.6003 14.914 4.34317 15.6569C5.08604 16.3997 5.96795 16.989 6.93856 17.391C7.90916 17.7931 8.94945 18 10 18V20C8.68681 20 7.38645 19.7413 6.17319 19.2388C4.95993 18.7363 3.85754 17.9997 2.92896 17.0711C2.00037 16.1425 1.26378 15.0401 0.761229 13.8268Z" fill="#212529"/>
<path fill-rule="evenodd" clip-rule="evenodd" d="M13.8269 19.2388C12.6136 19.7413 11.3132 20 10 20V18C11.0506 18 12.0909 17.7931 13.0615 17.391C14.0321 16.989 14.914 16.3997 15.6569 15.6569C16.3997 14.914 16.989 14.0321 17.3911 13.0615C17.7931 12.0909 18 11.0506 18 10H20C20 11.3132 19.7414 12.6136 19.2388 13.8268C18.7363 15.0401 17.9997 16.1425 17.0711 17.0711C16.1425 17.9997 15.0401 18.7362 13.8269 19.2388Z" fill="#212529"/>
<path fill-rule="evenodd" clip-rule="evenodd" d="M15.4224 1.26069C16.7181 0.728299 18.679 0.45 20 0.45V2.45C18.8523 2.45 17.1676 2.70585 16.1825 3.11062C15.1629 3.52958 14.2369 4.14346 13.4573 4.91681C12.6777 5.69015 12.0598 6.60779 11.6383 7.61714C11.2168 8.62647 11 9.70799 11 10.8H9.00003C9.00003 9.4431 9.26946 8.09967 9.79273 6.8465C10.316 5.59335 11.0828 4.45523 12.0488 3.49692C13.0149 2.53862 14.1613 1.77889 15.4224 1.26069Z" fill="#212529"/>
<path fill-rule="evenodd" clip-rule="evenodd" d="M18 10L18 0.8H20L20 10H18Z" fill="#212529"/>
<path fill-rule="evenodd" clip-rule="evenodd" d="M10 12L1.2 12L1.2 10H10V12Z" fill="#212529"/>
<path fill-rule="evenodd" clip-rule="evenodd" d="M18.8 12H10V10H18.8V12Z" fill="#212529"/>
<path fill-rule="evenodd" clip-rule="evenodd" d="M8.9 18.9V10.1H10.9V18.9H8.9Z" fill="#212529"/>
<path fill-rule="evenodd" clip-rule="evenodd" d="M5 8C6.65685 8 8 6.65685 8 5C8 3.34315 6.65685 2 5 2C3.34315 2 2 3.34315 2 5C2 6.65685 3.34315 8 5 8ZM5 10C7.76142 10 10 7.76142 10 5C10 2.23858 7.76142 0 5 0C2.23858 0 0 2.23858 0 5C0 7.76142 2.23858 10 5 10Z" fill="#212529"/>
</svg>
