<svg width="42" height="42" viewBox="0 0 42 42" fill="none" xmlns="http://www.w3.org/2000/svg">
<path fill-rule="evenodd" clip-rule="evenodd" d="M1.7524 28.97C0.705425 26.4424 0.166555 23.7333 0.166554 20.9974H4.33322C4.33322 23.1861 4.76432 25.3534 5.6019 27.3755C6.43947 29.3975 7.66713 31.2349 9.21478 32.7825C10.7624 34.3302 12.5997 35.5578 14.6218 36.3954C16.6439 37.233 18.8112 37.6641 20.9999 37.6641V41.8307C18.264 41.8307 15.5549 41.2919 13.0273 40.2449C10.4997 39.1979 8.20305 37.6633 6.2685 35.7288C4.33394 33.7942 2.79937 31.4976 1.7524 28.97Z" fill="#008088"/>
<path fill-rule="evenodd" clip-rule="evenodd" d="M28.9725 40.2449C26.4448 41.2919 23.7358 41.8307 20.9999 41.8307V37.6641C23.1886 37.6641 25.3559 37.233 27.3779 36.3954C29.4 35.5578 31.2374 34.3302 32.785 32.7825C34.3326 31.2349 35.5603 29.3975 36.3979 27.3755C37.2355 25.3534 37.6666 23.1861 37.6666 20.9974H41.8332C41.8332 23.7333 41.2944 26.4424 40.2474 28.97C39.2004 31.4976 37.6658 33.7942 35.7313 35.7288C33.7967 37.6633 31.5001 39.1979 28.9725 40.2449Z" fill="#008088"/>
<path fill-rule="evenodd" clip-rule="evenodd" d="M32.2965 2.79051C34.9959 1.68135 39.0811 1.10156 41.8332 1.10156V5.26823C39.4422 5.26823 35.9324 5.80125 33.8801 6.64452C31.7558 7.51736 29.8268 8.79628 28.2026 10.4074C26.5785 12.0185 25.291 13.9303 24.413 16.0331C23.5349 18.1359 23.0832 20.389 23.0832 22.6641H18.9166C18.9166 19.8372 19.4779 17.0384 20.568 14.4276C21.6582 11.8169 23.2556 9.44579 25.2682 7.44931C27.2808 5.45286 29.6692 3.87007 32.2965 2.79051Z" fill="#008088"/>
<path fill-rule="evenodd" clip-rule="evenodd" d="M37.6666 20.9974L37.6665 1.83073H41.8332L41.8332 20.9974H37.6666Z" fill="#008088"/>
<path fill-rule="evenodd" clip-rule="evenodd" d="M20.9998 25.1641L2.6665 25.1641L2.6665 20.9974H20.9998V25.1641Z" fill="#008088"/>
<path fill-rule="evenodd" clip-rule="evenodd" d="M39.3332 25.1641H20.9998V20.9974H39.3332V25.1641Z" fill="#008088"/>
<path fill-rule="evenodd" clip-rule="evenodd" d="M18.7082 39.5391V21.2057H22.8748V39.5391H18.7082Z" fill="#008088"/>
<path fill-rule="evenodd" clip-rule="evenodd" d="M10.5832 16.8307C14.035 16.8307 16.8332 14.0325 16.8332 10.5807C16.8332 7.12895 14.035 4.33073 10.5832 4.33073C7.13139 4.33073 4.33317 7.12895 4.33317 10.5807C4.33317 14.0325 7.13139 16.8307 10.5832 16.8307ZM10.5832 20.9974C16.3361 20.9974 20.9998 16.3337 20.9998 10.5807C20.9998 4.82776 16.3361 0.164062 10.5832 0.164062C4.8302 0.164062 0.166504 4.82776 0.166504 10.5807C0.166504 16.3337 4.8302 20.9974 10.5832 20.9974Z" fill="#008088"/>
</svg>
